<svg xmlns="http://www.w3.org/2000/svg" xmlns:xlink="http://www.w3.org/1999/xlink" width="324" zoomAndPan="magnify" viewBox="0 0 242.87999 38.999999" height="52" preserveAspectRatio="xMidYMid meet" version="1.0"><defs><g/><clipPath id="62d62e896e"><path d="M 8.121094 2 L 80.832031 2 L 80.832031 38.789062 L 8.121094 38.789062 Z M 8.121094 2 " clip-rule="nonzero"/></clipPath><clipPath id="e95a9e014d"><path d="M 16 0.558594 L 54 0.558594 L 54 20 L 16 20 Z M 16 0.558594 " clip-rule="nonzero"/></clipPath></defs><g fill="#ffffff" fill-opacity="1"><g transform="translate(31.590832, 27.326903)"><g><path d="M 4.515625 -0.3125 L 4.515625 -14.28125 C 4.515625 -14.488281 4.40625 -14.59375 4.1875 -14.59375 L 3.8125 -14.59375 C 3.601562 -14.59375 3.5 -14.488281 3.5 -14.28125 L 3.5 -12.390625 C 3.5 -12.179688 3.390625 -12.078125 3.171875 -12.078125 L 2.8125 -12.078125 C 2.601562 -12.078125 2.5 -11.972656 2.5 -11.765625 L 2.5 -11.40625 C 2.5 -11.1875 2.394531 -11.078125 2.1875 -11.078125 L 0.8125 -11.078125 C 0.601562 -11.078125 0.5 -11.1875 0.5 -11.40625 L 0.5 -15.265625 C 0.5 -15.472656 0.601562 -15.578125 0.8125 -15.578125 L 12.703125 -15.578125 C 12.910156 -15.578125 13.015625 -15.472656 13.015625 -15.265625 L 13.015625 -11.40625 C 13.015625 -11.1875 12.910156 -11.078125 12.703125 -11.078125 L 11.328125 -11.078125 C 11.117188 -11.078125 11.015625 -11.1875 11.015625 -11.40625 L 11.015625 -11.765625 C 11.015625 -11.972656 10.910156 -12.078125 10.703125 -12.078125 L 10.328125 -12.078125 C 10.117188 -12.078125 10.015625 -12.179688 10.015625 -12.390625 L 10.015625 -14.28125 C 10.015625 -14.488281 9.910156 -14.59375 9.703125 -14.59375 L 9.3125 -14.59375 C 9.101562 -14.59375 9 -14.488281 9 -14.28125 L 9 -0.3125 C 9 -0.101562 8.894531 0 8.6875 0 L 4.828125 0 C 4.617188 0 4.515625 -0.101562 4.515625 -0.3125 Z M 4.515625 -0.3125 "/></g></g></g><g fill="#ffffff" fill-opacity="1"><g transform="translate(46.694431, 27.326903)"><g><path d="M 1.171875 -0.3125 L 1.171875 -15.265625 C 1.171875 -15.472656 1.273438 -15.578125 1.484375 -15.578125 L 5.34375 -15.578125 C 5.550781 -15.578125 5.65625 -15.472656 5.65625 -15.265625 L 5.65625 -8.546875 C 5.65625 -8.335938 5.757812 -8.234375 5.96875 -8.234375 L 6.359375 -8.234375 C 6.566406 -8.234375 6.671875 -8.335938 6.671875 -8.546875 L 6.671875 -8.921875 C 6.671875 -9.128906 6.773438 -9.234375 6.984375 -9.234375 L 7.34375 -9.234375 C 7.550781 -9.234375 7.65625 -9.335938 7.65625 -9.546875 L 7.65625 -15.265625 C 7.65625 -15.472656 7.757812 -15.578125 7.96875 -15.578125 L 11.828125 -15.578125 C 12.035156 -15.578125 12.140625 -15.472656 12.140625 -15.265625 L 12.140625 -0.3125 C 12.140625 -0.101562 12.035156 0 11.828125 0 L 7.96875 0 C 7.757812 0 7.65625 -0.101562 7.65625 -0.3125 L 7.65625 -7.015625 C 7.65625 -7.234375 7.550781 -7.34375 7.34375 -7.34375 L 6.984375 -7.34375 C 6.773438 -7.34375 6.671875 -7.234375 6.671875 -7.015625 L 6.671875 -6.65625 C 6.671875 -6.445312 6.566406 -6.34375 6.359375 -6.34375 L 5.96875 -6.34375 C 5.757812 -6.34375 5.65625 -6.238281 5.65625 -6.03125 L 5.65625 -0.3125 C 5.65625 -0.101562 5.550781 0 5.34375 0 L 1.484375 0 C 1.273438 0 1.171875 -0.101562 1.171875 -0.3125 Z M 1.171875 -0.3125 "/></g></g></g><g fill="#ffffff" fill-opacity="1"><g transform="translate(61.598451, 27.326903)"><g><path d="M 1.171875 -0.3125 L 1.171875 -15.265625 C 1.171875 -15.472656 1.273438 -15.578125 1.484375 -15.578125 L 10.828125 -15.578125 C 11.046875 -15.578125 11.15625 -15.472656 11.15625 -15.265625 L 11.15625 -11.40625 C 11.15625 -11.1875 11.046875 -11.078125 10.828125 -11.078125 L 7.96875 -11.078125 C 7.757812 -11.078125 7.65625 -11.1875 7.65625 -11.40625 L 7.65625 -11.765625 C 7.65625 -11.972656 7.550781 -12.078125 7.34375 -12.078125 L 6.96875 -12.078125 C 6.757812 -12.078125 6.65625 -12.179688 6.65625 -12.390625 L 6.65625 -14.265625 C 6.65625 -14.472656 6.550781 -14.578125 6.34375 -14.578125 L 5.96875 -14.578125 C 5.757812 -14.578125 5.65625 -14.472656 5.65625 -14.265625 L 5.65625 -9.109375 C 5.65625 -8.890625 5.757812 -8.78125 5.96875 -8.78125 L 9.203125 -8.78125 C 9.410156 -8.78125 9.515625 -8.675781 9.515625 -8.46875 L 9.515625 -7.109375 C 9.515625 -6.898438 9.410156 -6.796875 9.203125 -6.796875 L 5.96875 -6.796875 C 5.757812 -6.796875 5.65625 -6.6875 5.65625 -6.46875 L 5.65625 -1.3125 C 5.65625 -1.101562 5.757812 -1 5.96875 -1 L 6.34375 -1 C 6.550781 -1 6.65625 -1.101562 6.65625 -1.3125 L 6.65625 -3.171875 C 6.65625 -3.390625 6.757812 -3.5 6.96875 -3.5 L 7.34375 -3.5 C 7.550781 -3.5 7.65625 -3.601562 7.65625 -3.8125 L 7.65625 -4.171875 C 7.65625 -4.390625 7.757812 -4.5 7.96875 -4.5 L 10.828125 -4.5 C 11.046875 -4.5 11.15625 -4.390625 11.15625 -4.171875 L 11.15625 -0.3125 C 11.15625 -0.101562 11.046875 0 10.828125 0 L 1.484375 0 C 1.273438 0 1.171875 -0.101562 1.171875 -0.3125 Z M 1.171875 -0.3125 "/></g></g></g><g fill="#ffffff" fill-opacity="1"><g transform="translate(75.171872, 27.326903)"><g/></g></g><g fill="#ffffff" fill-opacity="1"><g transform="translate(80.928081, 27.326903)"><g><path d="M 3.15625 -0.3125 L 3.15625 -0.6875 C 3.15625 -0.894531 3.050781 -1 2.84375 -1 L 2.484375 -1 C 2.265625 -1 2.15625 -1.101562 2.15625 -1.3125 L 2.15625 -1.6875 C 2.15625 -1.894531 2.050781 -2 1.84375 -2 L 1.484375 -2 C 1.273438 -2 1.171875 -2.101562 1.171875 -2.3125 L 1.171875 -13.265625 C 1.171875 -13.472656 1.273438 -13.578125 1.484375 -13.578125 L 1.84375 -13.578125 C 2.050781 -13.578125 2.15625 -13.679688 2.15625 -13.890625 L 2.15625 -14.265625 C 2.15625 -14.472656 2.265625 -14.578125 2.484375 -14.578125 L 2.84375 -14.578125 C 3.050781 -14.578125 3.15625 -14.679688 3.15625 -14.890625 L 3.15625 -15.265625 C 3.15625 -15.472656 3.265625 -15.578125 3.484375 -15.578125 L 10.5625 -15.578125 C 10.789062 -15.578125 10.90625 -15.46875 10.90625 -15.25 L 10.90625 -14.90625 C 10.90625 -14.6875 11.015625 -14.578125 11.234375 -14.578125 L 11.8125 -14.578125 C 12.03125 -14.578125 12.140625 -14.46875 12.140625 -14.25 L 12.140625 -11.421875 C 12.140625 -11.191406 12.03125 -11.078125 11.8125 -11.078125 L 8.984375 -11.078125 C 8.765625 -11.078125 8.65625 -11.191406 8.65625 -11.421875 L 8.65625 -11.765625 C 8.65625 -11.972656 8.550781 -12.078125 8.34375 -12.078125 L 7.984375 -12.078125 C 7.765625 -12.078125 7.65625 -12.1875 7.65625 -12.40625 L 7.65625 -14.265625 C 7.65625 -14.472656 7.550781 -14.578125 7.34375 -14.578125 L 6.96875 -14.578125 C 6.757812 -14.578125 6.65625 -14.472656 6.65625 -14.265625 L 6.65625 -13.890625 C 6.65625 -13.679688 6.550781 -13.578125 6.34375 -13.578125 L 5.96875 -13.578125 C 5.757812 -13.578125 5.65625 -13.472656 5.65625 -13.265625 L 5.65625 -2.3125 C 5.65625 -2.101562 5.757812 -2 5.96875 -2 L 6.34375 -2 C 6.550781 -2 6.65625 -1.894531 6.65625 -1.6875 L 6.65625 -1.3125 C 6.65625 -1.101562 6.757812 -1 6.96875 -1 L 7.34375 -1 C 7.550781 -1 7.65625 -1.101562 7.65625 -1.3125 L 7.65625 -4.5 C 7.65625 -4.707031 7.550781 -4.8125 7.34375 -4.8125 L 6.96875 -4.8125 C 6.757812 -4.8125 6.65625 -4.914062 6.65625 -5.125 L 6.65625 -6.96875 C 6.65625 -7.195312 6.765625 -7.3125 6.984375 -7.3125 L 11.8125 -7.3125 C 12.03125 -7.3125 12.140625 -7.195312 12.140625 -6.96875 L 12.140625 -0.3125 C 12.140625 -0.101562 12.035156 0 11.828125 0 L 10.015625 0 C 9.804688 0 9.703125 -0.101562 9.703125 -0.3125 L 9.703125 -0.671875 C 9.703125 -0.890625 9.59375 -1 9.375 -1 L 9.03125 -1 C 8.8125 -1 8.703125 -0.890625 8.703125 -0.671875 L 8.703125 -0.328125 C 8.703125 -0.109375 8.59375 0 8.375 0 L 3.484375 0 C 3.265625 0 3.15625 -0.101562 3.15625 -0.3125 Z M 3.15625 -0.3125 "/></g></g></g><g fill="#ffffff" fill-opacity="1"><g transform="translate(95.832105, 27.326903)"><g><path d="M 5.65625 -14.265625 L 5.65625 -8.03125 C 5.65625 -7.820312 5.757812 -7.71875 5.96875 -7.71875 L 6.34375 -7.71875 C 6.550781 -7.71875 6.65625 -7.820312 6.65625 -8.03125 L 6.65625 -8.40625 C 6.65625 -8.613281 6.757812 -8.71875 6.96875 -8.71875 L 7.34375 -8.71875 C 7.550781 -8.71875 7.65625 -8.820312 7.65625 -9.03125 L 7.65625 -13.265625 C 7.65625 -13.472656 7.550781 -13.578125 7.34375 -13.578125 L 6.96875 -13.578125 C 6.757812 -13.578125 6.65625 -13.679688 6.65625 -13.890625 L 6.65625 -14.265625 C 6.65625 -14.472656 6.550781 -14.578125 6.34375 -14.578125 L 5.96875 -14.578125 C 5.757812 -14.578125 5.65625 -14.472656 5.65625 -14.265625 Z M 1.171875 -0.3125 L 1.171875 -15.265625 C 1.171875 -15.472656 1.273438 -15.578125 1.484375 -15.578125 L 9.828125 -15.578125 C 10.046875 -15.578125 10.15625 -15.472656 10.15625 -15.265625 L 10.15625 -14.890625 C 10.15625 -14.679688 10.257812 -14.578125 10.46875 -14.578125 L 10.828125 -14.578125 C 11.046875 -14.578125 11.15625 -14.472656 11.15625 -14.265625 L 11.15625 -13.890625 C 11.15625 -13.679688 11.257812 -13.578125 11.46875 -13.578125 L 11.828125 -13.578125 C 12.035156 -13.578125 12.140625 -13.472656 12.140625 -13.265625 L 12.140625 -9.03125 C 12.140625 -8.820312 12.035156 -8.71875 11.828125 -8.71875 L 11.46875 -8.71875 C 11.257812 -8.71875 11.15625 -8.613281 11.15625 -8.40625 L 11.15625 -8.03125 C 11.15625 -7.820312 11.046875 -7.71875 10.828125 -7.71875 L 8.96875 -7.71875 C 8.757812 -7.71875 8.65625 -7.613281 8.65625 -7.40625 L 8.65625 -7.03125 C 8.65625 -6.820312 8.757812 -6.71875 8.96875 -6.71875 L 10.828125 -6.71875 C 11.046875 -6.71875 11.15625 -6.613281 11.15625 -6.40625 L 11.15625 -6.046875 C 11.15625 -5.828125 11.257812 -5.71875 11.46875 -5.71875 L 11.828125 -5.71875 C 12.035156 -5.71875 12.140625 -5.613281 12.140625 -5.40625 L 12.140625 -0.3125 C 12.140625 -0.101562 12.035156 0 11.828125 0 L 7.96875 0 C 7.757812 0 7.65625 -0.101562 7.65625 -0.3125 L 7.65625 -5.40625 C 7.65625 -5.613281 7.550781 -5.71875 7.34375 -5.71875 L 6.96875 -5.71875 C 6.757812 -5.71875 6.65625 -5.828125 6.65625 -6.046875 L 6.65625 -6.40625 C 6.65625 -6.613281 6.550781 -6.71875 6.34375 -6.71875 L 5.96875 -6.71875 C 5.757812 -6.71875 5.65625 -6.613281 5.65625 -6.40625 L 5.65625 -0.3125 C 5.65625 -0.101562 5.550781 0 5.34375 0 L 1.484375 0 C 1.273438 0 1.171875 -0.101562 1.171875 -0.3125 Z M 1.171875 -0.3125 "/></g></g></g><g fill="#ffffff" fill-opacity="1"><g transform="translate(110.736128, 27.326903)"><g><path d="M 1.171875 -0.3125 L 1.171875 -15.265625 C 1.171875 -15.472656 1.273438 -15.578125 1.484375 -15.578125 L 10.828125 -15.578125 C 11.046875 -15.578125 11.15625 -15.472656 11.15625 -15.265625 L 11.15625 -11.40625 C 11.15625 -11.1875 11.046875 -11.078125 10.828125 -11.078125 L 7.96875 -11.078125 C 7.757812 -11.078125 7.65625 -11.1875 7.65625 -11.40625 L 7.65625 -11.765625 C 7.65625 -11.972656 7.550781 -12.078125 7.34375 -12.078125 L 6.96875 -12.078125 C 6.757812 -12.078125 6.65625 -12.179688 6.65625 -12.390625 L 6.65625 -14.265625 C 6.65625 -14.472656 6.550781 -14.578125 6.34375 -14.578125 L 5.96875 -14.578125 C 5.757812 -14.578125 5.65625 -14.472656 5.65625 -14.265625 L 5.65625 -9.109375 C 5.65625 -8.890625 5.757812 -8.78125 5.96875 -8.78125 L 9.203125 -8.78125 C 9.410156 -8.78125 9.515625 -8.675781 9.515625 -8.46875 L 9.515625 -7.109375 C 9.515625 -6.898438 9.410156 -6.796875 9.203125 -6.796875 L 5.96875 -6.796875 C 5.757812 -6.796875 5.65625 -6.6875 5.65625 -6.46875 L 5.65625 -1.3125 C 5.65625 -1.101562 5.757812 -1 5.96875 -1 L 6.34375 -1 C 6.550781 -1 6.65625 -1.101562 6.65625 -1.3125 L 6.65625 -3.171875 C 6.65625 -3.390625 6.757812 -3.5 6.96875 -3.5 L 7.34375 -3.5 C 7.550781 -3.5 7.65625 -3.601562 7.65625 -3.8125 L 7.65625 -4.171875 C 7.65625 -4.390625 7.757812 -4.5 7.96875 -4.5 L 10.828125 -4.5 C 11.046875 -4.5 11.15625 -4.390625 11.15625 -4.171875 L 11.15625 -0.3125 C 11.15625 -0.101562 11.046875 0 10.828125 0 L 1.484375 0 C 1.273438 0 1.171875 -0.101562 1.171875 -0.3125 Z M 1.171875 -0.3125 "/></g></g></g><g fill="#ffffff" fill-opacity="1"><g transform="translate(124.309552, 27.326903)"><g><path d="M 1.171875 -0.3125 L 1.171875 -11.265625 C 1.171875 -11.472656 1.273438 -11.578125 1.484375 -11.578125 L 2.03125 -11.578125 C 2.238281 -11.578125 2.34375 -11.679688 2.34375 -11.890625 L 2.34375 -12.265625 C 2.34375 -12.472656 2.445312 -12.578125 2.65625 -12.578125 L 3.03125 -12.578125 C 3.238281 -12.578125 3.34375 -12.679688 3.34375 -12.890625 L 3.34375 -13.265625 C 3.34375 -13.472656 3.445312 -13.578125 3.65625 -13.578125 L 4.03125 -13.578125 C 4.238281 -13.578125 4.34375 -13.679688 4.34375 -13.890625 L 4.34375 -14.265625 C 4.34375 -14.472656 4.445312 -14.578125 4.65625 -14.578125 L 4.828125 -14.578125 C 5.035156 -14.578125 5.140625 -14.679688 5.140625 -14.890625 L 5.140625 -15.265625 C 5.140625 -15.472656 5.242188 -15.578125 5.453125 -15.578125 L 10.828125 -15.578125 C 11.046875 -15.578125 11.15625 -15.472656 11.15625 -15.265625 L 11.15625 -14.890625 C 11.15625 -14.679688 11.257812 -14.578125 11.46875 -14.578125 L 11.828125 -14.578125 C 12.035156 -14.578125 12.140625 -14.472656 12.140625 -14.265625 L 12.140625 -0.3125 C 12.140625 -0.101562 12.035156 0 11.828125 0 L 7.96875 0 C 7.757812 0 7.65625 -0.101562 7.65625 -0.3125 L 7.65625 -5.609375 C 7.65625 -5.816406 7.550781 -5.921875 7.34375 -5.921875 L 6.96875 -5.921875 C 6.757812 -5.921875 6.65625 -5.816406 6.65625 -5.609375 L 6.65625 -5.234375 C 6.65625 -5.023438 6.550781 -4.921875 6.34375 -4.921875 L 5.96875 -4.921875 C 5.757812 -4.921875 5.65625 -4.816406 5.65625 -4.609375 L 5.65625 -0.3125 C 5.65625 -0.101562 5.550781 0 5.34375 0 L 1.484375 0 C 1.273438 0 1.171875 -0.101562 1.171875 -0.3125 Z M 5.96875 -6.828125 L 6.34375 -6.828125 C 6.550781 -6.828125 6.65625 -6.929688 6.65625 -7.140625 L 6.65625 -7.5 C 6.65625 -7.71875 6.757812 -7.828125 6.96875 -7.828125 L 7.34375 -7.828125 C 7.550781 -7.828125 7.65625 -7.929688 7.65625 -8.140625 L 7.65625 -14.265625 C 7.65625 -14.472656 7.550781 -14.578125 7.34375 -14.578125 L 6.96875 -14.578125 C 6.757812 -14.578125 6.65625 -14.472656 6.65625 -14.265625 L 6.65625 -13.890625 C 6.65625 -13.679688 6.550781 -13.578125 6.34375 -13.578125 L 5.96875 -13.578125 C 5.757812 -13.578125 5.65625 -13.472656 5.65625 -13.265625 L 5.65625 -7.140625 C 5.65625 -6.929688 5.757812 -6.828125 5.96875 -6.828125 Z M 5.96875 -6.828125 "/></g></g></g><g fill="#ffffff" fill-opacity="1"><g transform="translate(139.213575, 27.326903)"><g><path d="M 4.515625 -0.3125 L 4.515625 -14.28125 C 4.515625 -14.488281 4.40625 -14.59375 4.1875 -14.59375 L 3.8125 -14.59375 C 3.601562 -14.59375 3.5 -14.488281 3.5 -14.28125 L 3.5 -12.390625 C 3.5 -12.179688 3.390625 -12.078125 3.171875 -12.078125 L 2.8125 -12.078125 C 2.601562 -12.078125 2.5 -11.972656 2.5 -11.765625 L 2.5 -11.40625 C 2.5 -11.1875 2.394531 -11.078125 2.1875 -11.078125 L 0.8125 -11.078125 C 0.601562 -11.078125 0.5 -11.1875 0.5 -11.40625 L 0.5 -15.265625 C 0.5 -15.472656 0.601562 -15.578125 0.8125 -15.578125 L 12.703125 -15.578125 C 12.910156 -15.578125 13.015625 -15.472656 13.015625 -15.265625 L 13.015625 -11.40625 C 13.015625 -11.1875 12.910156 -11.078125 12.703125 -11.078125 L 11.328125 -11.078125 C 11.117188 -11.078125 11.015625 -11.1875 11.015625 -11.40625 L 11.015625 -11.765625 C 11.015625 -11.972656 10.910156 -12.078125 10.703125 -12.078125 L 10.328125 -12.078125 C 10.117188 -12.078125 10.015625 -12.179688 10.015625 -12.390625 L 10.015625 -14.28125 C 10.015625 -14.488281 9.910156 -14.59375 9.703125 -14.59375 L 9.3125 -14.59375 C 9.101562 -14.59375 9 -14.488281 9 -14.28125 L 9 -0.3125 C 9 -0.101562 8.894531 0 8.6875 0 L 4.828125 0 C 4.617188 0 4.515625 -0.101562 4.515625 -0.3125 Z M 4.515625 -0.3125 "/></g></g></g><g fill="#ffffff" fill-opacity="1"><g transform="translate(154.317177, 27.326903)"><g/></g></g><g fill="#ffffff" fill-opacity="1"><g transform="translate(160.073389, 27.326903)"><g><path d="M 4.515625 -0.3125 L 4.515625 -14.28125 C 4.515625 -14.488281 4.40625 -14.59375 4.1875 -14.59375 L 3.8125 -14.59375 C 3.601562 -14.59375 3.5 -14.488281 3.5 -14.28125 L 3.5 -12.390625 C 3.5 -12.179688 3.390625 -12.078125 3.171875 -12.078125 L 2.8125 -12.078125 C 2.601562 -12.078125 2.5 -11.972656 2.5 -11.765625 L 2.5 -11.40625 C 2.5 -11.1875 2.394531 -11.078125 2.1875 -11.078125 L 0.8125 -11.078125 C 0.601562 -11.078125 0.5 -11.1875 0.5 -11.40625 L 0.5 -15.265625 C 0.5 -15.472656 0.601562 -15.578125 0.8125 -15.578125 L 12.703125 -15.578125 C 12.910156 -15.578125 13.015625 -15.472656 13.015625 -15.265625 L 13.015625 -11.40625 C 13.015625 -11.1875 12.910156 -11.078125 12.703125 -11.078125 L 11.328125 -11.078125 C 11.117188 -11.078125 11.015625 -11.1875 11.015625 -11.40625 L 11.015625 -11.765625 C 11.015625 -11.972656 10.910156 -12.078125 10.703125 -12.078125 L 10.328125 -12.078125 C 10.117188 -12.078125 10.015625 -12.179688 10.015625 -12.390625 L 10.015625 -14.28125 C 10.015625 -14.488281 9.910156 -14.59375 9.703125 -14.59375 L 9.3125 -14.59375 C 9.101562 -14.59375 9 -14.488281 9 -14.28125 L 9 -0.3125 C 9 -0.101562 8.894531 0 8.6875 0 L 4.828125 0 C 4.617188 0 4.515625 -0.101562 4.515625 -0.3125 Z M 4.515625 -0.3125 "/></g></g></g><g fill="#ffffff" fill-opacity="1"><g transform="translate(175.176991, 27.326903)"><g><path d="M 1.171875 -0.3125 L 1.171875 -15.265625 C 1.171875 -15.472656 1.273438 -15.578125 1.484375 -15.578125 L 10.828125 -15.578125 C 11.046875 -15.578125 11.15625 -15.472656 11.15625 -15.265625 L 11.15625 -11.40625 C 11.15625 -11.1875 11.046875 -11.078125 10.828125 -11.078125 L 7.96875 -11.078125 C 7.757812 -11.078125 7.65625 -11.1875 7.65625 -11.40625 L 7.65625 -11.765625 C 7.65625 -11.972656 7.550781 -12.078125 7.34375 -12.078125 L 6.96875 -12.078125 C 6.757812 -12.078125 6.65625 -12.179688 6.65625 -12.390625 L 6.65625 -14.265625 C 6.65625 -14.472656 6.550781 -14.578125 6.34375 -14.578125 L 5.96875 -14.578125 C 5.757812 -14.578125 5.65625 -14.472656 5.65625 -14.265625 L 5.65625 -9.109375 C 5.65625 -8.890625 5.757812 -8.78125 5.96875 -8.78125 L 9.203125 -8.78125 C 9.410156 -8.78125 9.515625 -8.675781 9.515625 -8.46875 L 9.515625 -7.109375 C 9.515625 -6.898438 9.410156 -6.796875 9.203125 -6.796875 L 5.96875 -6.796875 C 5.757812 -6.796875 5.65625 -6.6875 5.65625 -6.46875 L 5.65625 -1.3125 C 5.65625 -1.101562 5.757812 -1 5.96875 -1 L 6.34375 -1 C 6.550781 -1 6.65625 -1.101562 6.65625 -1.3125 L 6.65625 -3.171875 C 6.65625 -3.390625 6.757812 -3.5 6.96875 -3.5 L 7.34375 -3.5 C 7.550781 -3.5 7.65625 -3.601562 7.65625 -3.8125 L 7.65625 -4.171875 C 7.65625 -4.390625 7.757812 -4.5 7.96875 -4.5 L 10.828125 -4.5 C 11.046875 -4.5 11.15625 -4.390625 11.15625 -4.171875 L 11.15625 -0.3125 C 11.15625 -0.101562 11.046875 0 10.828125 0 L 1.484375 0 C 1.273438 0 1.171875 -0.101562 1.171875 -0.3125 Z M 1.171875 -0.3125 "/></g></g></g><g fill="#ffffff" fill-opacity="1"><g transform="translate(188.750415, 27.326903)"><g><path d="M 3.15625 -0.3125 L 3.15625 -0.6875 C 3.15625 -0.894531 3.050781 -1 2.84375 -1 L 2.484375 -1 C 2.265625 -1 2.15625 -1.101562 2.15625 -1.3125 L 2.15625 -1.6875 C 2.15625 -1.894531 2.050781 -2 1.84375 -2 L 1.484375 -2 C 1.273438 -2 1.171875 -2.101562 1.171875 -2.3125 L 1.171875 -13.265625 C 1.171875 -13.472656 1.273438 -13.578125 1.484375 -13.578125 L 1.84375 -13.578125 C 2.050781 -13.578125 2.15625 -13.679688 2.15625 -13.890625 L 2.15625 -14.265625 C 2.15625 -14.472656 2.265625 -14.578125 2.484375 -14.578125 L 2.84375 -14.578125 C 3.050781 -14.578125 3.15625 -14.679688 3.15625 -14.890625 L 3.15625 -15.265625 C 3.15625 -15.472656 3.265625 -15.578125 3.484375 -15.578125 L 10.5625 -15.578125 C 10.789062 -15.578125 10.90625 -15.46875 10.90625 -15.25 L 10.90625 -14.90625 C 10.90625 -14.6875 11.015625 -14.578125 11.234375 -14.578125 L 11.8125 -14.578125 C 12.03125 -14.578125 12.140625 -14.46875 12.140625 -14.25 L 12.140625 -11.421875 C 12.140625 -11.191406 12.03125 -11.078125 11.8125 -11.078125 L 8.984375 -11.078125 C 8.765625 -11.078125 8.65625 -11.191406 8.65625 -11.421875 L 8.65625 -11.765625 C 8.65625 -11.972656 8.550781 -12.078125 8.34375 -12.078125 L 7.984375 -12.078125 C 7.765625 -12.078125 7.65625 -12.1875 7.65625 -12.40625 L 7.65625 -14.265625 C 7.65625 -14.472656 7.550781 -14.578125 7.34375 -14.578125 L 6.96875 -14.578125 C 6.757812 -14.578125 6.65625 -14.472656 6.65625 -14.265625 L 6.65625 -13.890625 C 6.65625 -13.679688 6.550781 -13.578125 6.34375 -13.578125 L 5.96875 -13.578125 C 5.757812 -13.578125 5.65625 -13.472656 5.65625 -13.265625 L 5.65625 -2.3125 C 5.65625 -2.101562 5.757812 -2 5.96875 -2 L 6.34375 -2 C 6.550781 -2 6.65625 -1.894531 6.65625 -1.6875 L 6.65625 -1.3125 C 6.65625 -1.101562 6.757812 -1 6.96875 -1 L 7.34375 -1 C 7.550781 -1 7.65625 -1.101562 7.65625 -1.3125 L 7.65625 -4.15625 C 7.65625 -4.382812 7.765625 -4.5 7.984375 -4.5 L 11.8125 -4.5 C 12.03125 -4.5 12.140625 -4.382812 12.140625 -4.15625 L 12.140625 -1.328125 C 12.140625 -1.109375 12.03125 -1 11.8125 -1 L 11.484375 -1 C 11.265625 -1 11.15625 -0.890625 11.15625 -0.671875 L 11.15625 -0.328125 C 11.15625 -0.109375 11.039062 0 10.8125 0 L 3.484375 0 C 3.265625 0 3.15625 -0.101562 3.15625 -0.3125 Z M 3.15625 -0.3125 "/></g></g></g><g fill="#ffffff" fill-opacity="1"><g transform="translate(203.488112, 27.326903)"><g><path d="M 1.171875 -0.3125 L 1.171875 -15.265625 C 1.171875 -15.472656 1.273438 -15.578125 1.484375 -15.578125 L 5.34375 -15.578125 C 5.550781 -15.578125 5.65625 -15.472656 5.65625 -15.265625 L 5.65625 -8.546875 C 5.65625 -8.335938 5.757812 -8.234375 5.96875 -8.234375 L 6.359375 -8.234375 C 6.566406 -8.234375 6.671875 -8.335938 6.671875 -8.546875 L 6.671875 -8.921875 C 6.671875 -9.128906 6.773438 -9.234375 6.984375 -9.234375 L 7.34375 -9.234375 C 7.550781 -9.234375 7.65625 -9.335938 7.65625 -9.546875 L 7.65625 -15.265625 C 7.65625 -15.472656 7.757812 -15.578125 7.96875 -15.578125 L 11.828125 -15.578125 C 12.035156 -15.578125 12.140625 -15.472656 12.140625 -15.265625 L 12.140625 -0.3125 C 12.140625 -0.101562 12.035156 0 11.828125 0 L 7.96875 0 C 7.757812 0 7.65625 -0.101562 7.65625 -0.3125 L 7.65625 -7.015625 C 7.65625 -7.234375 7.550781 -7.34375 7.34375 -7.34375 L 6.984375 -7.34375 C 6.773438 -7.34375 6.671875 -7.234375 6.671875 -7.015625 L 6.671875 -6.65625 C 6.671875 -6.445312 6.566406 -6.34375 6.359375 -6.34375 L 5.96875 -6.34375 C 5.757812 -6.34375 5.65625 -6.238281 5.65625 -6.03125 L 5.65625 -0.3125 C 5.65625 -0.101562 5.550781 0 5.34375 0 L 1.484375 0 C 1.273438 0 1.171875 -0.101562 1.171875 -0.3125 Z M 1.171875 -0.3125 "/></g></g></g><g fill="#ffffff" fill-opacity="1"><g transform="translate(47.537197, 33.188724)"><g><path d="M 1.59375 -3.703125 C 1.613281 -3.710938 1.644531 -3.71875 1.6875 -3.71875 C 1.726562 -3.71875 1.785156 -3.71875 1.859375 -3.71875 C 1.972656 -3.707031 2.082031 -3.695312 2.1875 -3.6875 C 2.289062 -3.675781 2.390625 -3.65625 2.484375 -3.625 C 2.585938 -3.601562 2.6875 -3.566406 2.78125 -3.515625 C 2.875 -3.472656 2.960938 -3.410156 3.046875 -3.328125 C 3.191406 -3.191406 3.296875 -3.035156 3.359375 -2.859375 C 3.359375 -2.835938 3.363281 -2.8125 3.375 -2.78125 C 3.382812 -2.75 3.394531 -2.71875 3.40625 -2.6875 C 3.414062 -2.644531 3.421875 -2.609375 3.421875 -2.578125 C 3.429688 -2.554688 3.4375 -2.539062 3.4375 -2.53125 L 3.4375 -2.5 L 2.359375 -2.5 L 2.359375 -2.5625 C 2.347656 -2.625 2.320312 -2.675781 2.28125 -2.71875 C 2.238281 -2.769531 2.191406 -2.8125 2.140625 -2.84375 C 2.085938 -2.875 2.03125 -2.894531 1.96875 -2.90625 C 1.90625 -2.925781 1.84375 -2.9375 1.78125 -2.9375 C 1.5625 -2.9375 1.445312 -2.832031 1.4375 -2.625 C 1.4375 -2.539062 1.476562 -2.46875 1.5625 -2.40625 C 1.65625 -2.34375 1.8125 -2.28125 2.03125 -2.21875 C 2.207031 -2.15625 2.359375 -2.101562 2.484375 -2.0625 C 2.609375 -2.019531 2.710938 -1.976562 2.796875 -1.9375 C 2.878906 -1.894531 2.953125 -1.851562 3.015625 -1.8125 C 3.078125 -1.769531 3.128906 -1.726562 3.171875 -1.6875 C 3.296875 -1.570312 3.390625 -1.4375 3.453125 -1.28125 C 3.515625 -1.125 3.539062 -0.960938 3.53125 -0.796875 C 3.519531 -0.554688 3.460938 -0.359375 3.359375 -0.203125 C 3.253906 -0.046875 3.117188 0.078125 2.953125 0.171875 C 2.785156 0.273438 2.601562 0.347656 2.40625 0.390625 C 2.207031 0.429688 2.003906 0.457031 1.796875 0.46875 C 1.609375 0.46875 1.429688 0.445312 1.265625 0.40625 C 1.109375 0.363281 0.960938 0.300781 0.828125 0.21875 C 0.691406 0.132812 0.578125 0.0234375 0.484375 -0.109375 C 0.390625 -0.242188 0.316406 -0.40625 0.265625 -0.59375 C 0.234375 -0.707031 0.21875 -0.796875 0.21875 -0.859375 C 0.21875 -0.867188 0.394531 -0.875 0.75 -0.875 L 1.3125 -0.875 L 1.3125 -0.796875 C 1.332031 -0.691406 1.378906 -0.597656 1.453125 -0.515625 C 1.523438 -0.429688 1.609375 -0.375 1.703125 -0.34375 C 1.722656 -0.34375 1.75 -0.335938 1.78125 -0.328125 C 1.8125 -0.328125 1.847656 -0.328125 1.890625 -0.328125 C 1.984375 -0.328125 2.070312 -0.34375 2.15625 -0.375 C 2.238281 -0.40625 2.296875 -0.46875 2.328125 -0.5625 C 2.367188 -0.644531 2.375 -0.734375 2.34375 -0.828125 C 2.3125 -0.929688 2.269531 -1.003906 2.21875 -1.046875 C 2.144531 -1.097656 1.957031 -1.164062 1.65625 -1.25 C 1.507812 -1.289062 1.378906 -1.332031 1.265625 -1.375 C 1.148438 -1.414062 1.050781 -1.457031 0.96875 -1.5 C 0.726562 -1.613281 0.554688 -1.753906 0.453125 -1.921875 C 0.347656 -2.085938 0.304688 -2.3125 0.328125 -2.59375 C 0.328125 -2.757812 0.359375 -2.90625 0.421875 -3.03125 C 0.484375 -3.164062 0.566406 -3.273438 0.671875 -3.359375 C 0.773438 -3.453125 0.894531 -3.523438 1.03125 -3.578125 C 1.164062 -3.640625 1.316406 -3.679688 1.484375 -3.703125 C 1.503906 -3.703125 1.523438 -3.703125 1.546875 -3.703125 C 1.578125 -3.703125 1.59375 -3.703125 1.59375 -3.703125 Z M 1.59375 -3.703125 "/></g></g></g><g fill="#ffffff" fill-opacity="1"><g transform="translate(52.133045, 33.188724)"><g><path d="M 1.984375 -3.703125 C 2.015625 -3.710938 2.039062 -3.71875 2.0625 -3.71875 C 2.070312 -3.71875 2.085938 -3.71875 2.109375 -3.71875 L 2.125 -3.71875 L 2.125 -3.296875 C 2.125 -3.015625 2.117188 -2.875 2.109375 -2.875 C 2.046875 -2.875 1.960938 -2.847656 1.859375 -2.796875 C 1.535156 -2.640625 1.382812 -2.234375 1.40625 -1.578125 C 1.40625 -1.460938 1.414062 -1.335938 1.4375 -1.203125 C 1.457031 -1.078125 1.492188 -0.953125 1.546875 -0.828125 C 1.597656 -0.703125 1.664062 -0.59375 1.75 -0.5 C 1.832031 -0.414062 1.941406 -0.363281 2.078125 -0.34375 L 2.125 -0.34375 L 2.125 0.46875 L 2.078125 0.46875 C 1.929688 0.46875 1.785156 0.453125 1.640625 0.421875 C 1.503906 0.390625 1.375 0.335938 1.25 0.265625 C 1.125 0.203125 1.003906 0.125 0.890625 0.03125 C 0.785156 -0.0625 0.691406 -0.164062 0.609375 -0.28125 C 0.421875 -0.550781 0.300781 -0.894531 0.25 -1.3125 C 0.25 -1.34375 0.25 -1.382812 0.25 -1.4375 C 0.25 -1.5 0.25 -1.570312 0.25 -1.65625 C 0.25 -1.738281 0.25 -1.804688 0.25 -1.859375 C 0.25 -1.921875 0.25 -1.96875 0.25 -2 C 0.28125 -2.175781 0.328125 -2.347656 0.390625 -2.515625 C 0.453125 -2.679688 0.53125 -2.832031 0.625 -2.96875 C 0.726562 -3.113281 0.847656 -3.238281 0.984375 -3.34375 C 1.117188 -3.445312 1.273438 -3.53125 1.453125 -3.59375 C 1.609375 -3.65625 1.785156 -3.691406 1.984375 -3.703125 Z M 2.25 -3.296875 L 2.25 -3.71875 L 2.296875 -3.71875 C 2.441406 -3.71875 2.585938 -3.695312 2.734375 -3.65625 C 2.878906 -3.625 3.015625 -3.570312 3.140625 -3.5 C 3.265625 -3.425781 3.382812 -3.335938 3.5 -3.234375 C 3.613281 -3.140625 3.707031 -3.03125 3.78125 -2.90625 C 3.96875 -2.625 4.085938 -2.304688 4.140625 -1.953125 C 4.148438 -1.921875 4.15625 -1.875 4.15625 -1.8125 C 4.15625 -1.757812 4.15625 -1.695312 4.15625 -1.625 C 4.144531 -1.414062 4.117188 -1.207031 4.078125 -1 C 4.035156 -0.800781 3.957031 -0.609375 3.84375 -0.421875 C 3.6875 -0.171875 3.492188 0.0234375 3.265625 0.171875 C 3.035156 0.328125 2.765625 0.421875 2.453125 0.453125 C 2.429688 0.460938 2.40625 0.46875 2.375 0.46875 C 2.351562 0.46875 2.335938 0.46875 2.328125 0.46875 L 2.28125 0.46875 L 2.28125 0.25 C 2.269531 0.113281 2.269531 -0.015625 2.28125 -0.140625 L 2.28125 -0.34375 L 2.359375 -0.359375 C 2.492188 -0.398438 2.601562 -0.460938 2.6875 -0.546875 C 2.769531 -0.628906 2.832031 -0.722656 2.875 -0.828125 C 2.914062 -0.941406 2.945312 -1.0625 2.96875 -1.1875 C 2.988281 -1.3125 3 -1.4375 3 -1.5625 C 3.007812 -1.832031 2.976562 -2.078125 2.90625 -2.296875 C 2.789062 -2.640625 2.601562 -2.832031 2.34375 -2.875 L 2.25 -2.890625 Z M 2.25 -3.296875 "/></g></g></g><g fill="#ffffff" fill-opacity="1"><g transform="translate(57.392433, 33.188724)"><g><path d="M 0.3125 -3.671875 C 0.3125 -3.671875 0.328125 -3.671875 0.359375 -3.671875 C 0.390625 -3.671875 0.460938 -3.671875 0.578125 -3.671875 L 3.265625 -3.671875 L 3.265625 -2.828125 L 1.515625 -2.828125 L 1.515625 0.40625 L 0.421875 0.40625 L 0.421875 -1.5625 C 0.421875 -2.875 0.414062 -3.539062 0.40625 -3.5625 C 0.375 -3.613281 0.34375 -3.648438 0.3125 -3.671875 Z M 1.671875 -2 L 3.140625 -2 L 3.140625 -1.15625 L 1.671875 -1.15625 Z M 1.671875 -2 "/></g></g></g><g fill="#ffffff" fill-opacity="1"><g transform="translate(61.74353, 33.188724)"><g><path d="M 0.109375 -3.671875 L 3.3125 -3.671875 L 3.3125 -2.84375 L 0.109375 -2.84375 Z M 1.125 -2.65625 L 1.09375 -2.6875 L 2.265625 -2.6875 L 2.265625 0.40625 L 1.171875 0.40625 L 1.171875 -1.0625 C 1.171875 -1.570312 1.171875 -1.953125 1.171875 -2.203125 C 1.171875 -2.460938 1.164062 -2.597656 1.15625 -2.609375 C 1.15625 -2.617188 1.144531 -2.632812 1.125 -2.65625 Z M 1.125 -2.65625 "/></g></g></g><g fill="#ffffff" fill-opacity="1"><g transform="translate(66.023919, 33.188724)"><g><path d="M 0.0625 -3.671875 C 0.0507812 -3.671875 0.0546875 -3.671875 0.078125 -3.671875 C 0.0976562 -3.671875 0.148438 -3.671875 0.234375 -3.671875 C 0.316406 -3.671875 0.4375 -3.671875 0.59375 -3.671875 L 1.15625 -3.671875 L 1.171875 -3.5625 C 1.191406 -3.476562 1.203125 -3.398438 1.203125 -3.328125 C 1.203125 -3.316406 1.203125 -3.285156 1.203125 -3.234375 C 1.210938 -3.191406 1.226562 -3.132812 1.25 -3.0625 C 1.25 -3.007812 1.25 -2.96875 1.25 -2.9375 C 1.257812 -2.90625 1.265625 -2.878906 1.265625 -2.859375 C 1.273438 -2.835938 1.28125 -2.800781 1.28125 -2.75 C 1.289062 -2.707031 1.300781 -2.648438 1.3125 -2.578125 C 1.3125 -2.554688 1.316406 -2.515625 1.328125 -2.453125 C 1.335938 -2.398438 1.347656 -2.328125 1.359375 -2.234375 C 1.367188 -2.191406 1.378906 -2.109375 1.390625 -1.984375 C 1.390625 -1.972656 1.390625 -1.941406 1.390625 -1.890625 C 1.398438 -1.847656 1.410156 -1.796875 1.421875 -1.734375 C 1.429688 -1.671875 1.4375 -1.613281 1.4375 -1.5625 C 1.445312 -1.507812 1.453125 -1.476562 1.453125 -1.46875 C 1.453125 -1.457031 1.457031 -1.425781 1.46875 -1.375 C 1.476562 -1.351562 1.484375 -1.328125 1.484375 -1.296875 C 1.484375 -1.273438 1.488281 -1.242188 1.5 -1.203125 C 1.507812 -1.085938 1.519531 -1.03125 1.53125 -1.03125 C 1.53125 -1.03125 1.539062 -1.070312 1.5625 -1.15625 C 1.570312 -1.238281 1.59375 -1.351562 1.625 -1.5 C 1.65625 -1.65625 1.691406 -1.851562 1.734375 -2.09375 C 1.753906 -2.175781 1.769531 -2.238281 1.78125 -2.28125 C 1.789062 -2.332031 1.796875 -2.363281 1.796875 -2.375 C 1.796875 -2.375 1.8125 -2.453125 1.84375 -2.609375 C 1.882812 -2.804688 1.90625 -2.90625 1.90625 -2.90625 C 1.925781 -2.988281 1.941406 -3.054688 1.953125 -3.109375 C 1.960938 -3.171875 1.96875 -3.21875 1.96875 -3.25 C 1.96875 -3.257812 1.972656 -3.28125 1.984375 -3.3125 C 1.992188 -3.34375 2 -3.375 2 -3.40625 C 2.007812 -3.445312 2.015625 -3.484375 2.015625 -3.515625 C 2.023438 -3.546875 2.03125 -3.566406 2.03125 -3.578125 L 2.0625 -3.671875 L 2.515625 -3.671875 C 2.804688 -3.671875 2.953125 -3.671875 2.953125 -3.671875 C 2.953125 -3.660156 2.957031 -3.613281 2.96875 -3.53125 C 2.988281 -3.457031 3.015625 -3.351562 3.046875 -3.21875 C 3.054688 -3.15625 3.0625 -3.101562 3.0625 -3.0625 C 3.070312 -3.03125 3.082031 -3.003906 3.09375 -2.984375 C 3.125 -2.765625 3.15625 -2.546875 3.1875 -2.328125 C 3.226562 -2.117188 3.273438 -1.910156 3.328125 -1.703125 C 3.328125 -1.691406 3.328125 -1.660156 3.328125 -1.609375 C 3.335938 -1.554688 3.347656 -1.5 3.359375 -1.4375 C 3.367188 -1.382812 3.378906 -1.332031 3.390625 -1.28125 C 3.398438 -1.238281 3.40625 -1.21875 3.40625 -1.21875 C 3.414062 -1.207031 3.421875 -1.175781 3.421875 -1.125 C 3.429688 -1.101562 3.4375 -1.082031 3.4375 -1.0625 C 3.4375 -1.039062 3.441406 -1.019531 3.453125 -1 C 3.453125 -0.976562 3.453125 -0.960938 3.453125 -0.953125 C 3.453125 -0.953125 3.53125 -1.441406 3.6875 -2.421875 C 3.71875 -2.617188 3.738281 -2.769531 3.75 -2.875 C 3.769531 -2.988281 3.785156 -3.066406 3.796875 -3.109375 C 3.816406 -3.265625 3.832031 -3.375 3.84375 -3.4375 C 3.851562 -3.476562 3.859375 -3.523438 3.859375 -3.578125 C 3.867188 -3.628906 3.875 -3.65625 3.875 -3.65625 L 3.875 -3.671875 L 4.828125 -3.671875 L 4.78125 -3.4375 C 4.738281 -3.164062 4.695312 -2.925781 4.65625 -2.71875 C 4.625 -2.519531 4.59375 -2.347656 4.5625 -2.203125 C 4.5625 -2.203125 4.554688 -2.175781 4.546875 -2.125 C 4.535156 -2.070312 4.519531 -2.003906 4.5 -1.921875 C 4.476562 -1.835938 4.457031 -1.75 4.4375 -1.65625 C 4.425781 -1.5625 4.410156 -1.46875 4.390625 -1.375 C 4.378906 -1.289062 4.367188 -1.21875 4.359375 -1.15625 C 4.347656 -1.09375 4.335938 -1.054688 4.328125 -1.046875 C 4.304688 -0.921875 4.289062 -0.828125 4.28125 -0.765625 C 4.269531 -0.703125 4.257812 -0.660156 4.25 -0.640625 C 4.25 -0.578125 4.238281 -0.492188 4.21875 -0.390625 C 4.195312 -0.296875 4.175781 -0.175781 4.15625 -0.03125 C 4.09375 0.257812 4.0625 0.40625 4.0625 0.40625 C 4.0625 0.40625 4.035156 0.40625 3.984375 0.40625 C 3.929688 0.40625 3.859375 0.40625 3.765625 0.40625 C 3.671875 0.40625 3.578125 0.40625 3.484375 0.40625 C 3.390625 0.40625 3.300781 0.40625 3.21875 0.40625 L 2.921875 0.40625 C 2.921875 0.394531 2.894531 0.257812 2.84375 0 C 2.800781 -0.25 2.734375 -0.625 2.640625 -1.125 C 2.617188 -1.21875 2.597656 -1.332031 2.578125 -1.46875 C 2.554688 -1.601562 2.53125 -1.757812 2.5 -1.9375 C 2.476562 -1.988281 2.46875 -2.023438 2.46875 -2.046875 C 2.46875 -2.078125 2.460938 -2.101562 2.453125 -2.125 C 2.453125 -2.132812 2.453125 -2.140625 2.453125 -2.140625 C 2.453125 -2.148438 2.453125 -2.15625 2.453125 -2.15625 C 2.453125 -2.164062 2.445312 -2.164062 2.4375 -2.15625 C 2.4375 -2.15625 2.429688 -2.117188 2.421875 -2.046875 C 2.410156 -2.015625 2.394531 -1.953125 2.375 -1.859375 C 2.363281 -1.773438 2.34375 -1.664062 2.3125 -1.53125 C 2.269531 -1.289062 2.226562 -1.082031 2.1875 -0.90625 C 2.15625 -0.726562 2.128906 -0.578125 2.109375 -0.453125 C 2.097656 -0.421875 2.085938 -0.378906 2.078125 -0.328125 C 2.078125 -0.285156 2.078125 -0.265625 2.078125 -0.265625 C 2.066406 -0.222656 2.054688 -0.179688 2.046875 -0.140625 C 2.023438 -0.0351562 2.003906 0.0820312 1.984375 0.21875 C 1.972656 0.238281 1.96875 0.253906 1.96875 0.265625 C 1.96875 0.285156 1.960938 0.3125 1.953125 0.34375 L 1.953125 0.40625 L 1.421875 0.40625 C 1.078125 0.414062 0.894531 0.414062 0.875 0.40625 C 0.863281 0.40625 0.851562 0.398438 0.84375 0.390625 C 0.84375 0.359375 0.835938 0.328125 0.828125 0.296875 C 0.828125 0.265625 0.820312 0.222656 0.8125 0.171875 C 0.8125 0.140625 0.789062 0.00390625 0.75 -0.234375 C 0.71875 -0.390625 0.679688 -0.578125 0.640625 -0.796875 C 0.609375 -1.023438 0.566406 -1.285156 0.515625 -1.578125 C 0.503906 -1.648438 0.492188 -1.734375 0.484375 -1.828125 C 0.453125 -2.003906 0.421875 -2.179688 0.390625 -2.359375 C 0.367188 -2.546875 0.34375 -2.738281 0.3125 -2.9375 C 0.28125 -3.09375 0.257812 -3.210938 0.25 -3.296875 C 0.238281 -3.390625 0.226562 -3.445312 0.21875 -3.46875 C 0.1875 -3.5625 0.132812 -3.628906 0.0625 -3.671875 Z M 0.0625 -3.671875 "/></g></g></g><g fill="#ffffff" fill-opacity="1"><g transform="translate(71.838075, 33.188724)"><g><path d="M 1.09375 -3.65625 C 1.082031 -3.664062 1.085938 -3.671875 1.109375 -3.671875 C 1.128906 -3.671875 1.203125 -3.671875 1.328125 -3.671875 C 1.460938 -3.671875 1.640625 -3.671875 1.859375 -3.671875 L 2.671875 -3.671875 L 2.703125 -3.5625 C 2.722656 -3.488281 2.757812 -3.375 2.8125 -3.21875 C 2.832031 -3.125 2.851562 -3.046875 2.875 -2.984375 C 2.894531 -2.921875 2.910156 -2.867188 2.921875 -2.828125 C 2.921875 -2.804688 2.945312 -2.710938 3 -2.546875 C 3.050781 -2.390625 3.085938 -2.257812 3.109375 -2.15625 C 3.148438 -2.019531 3.1875 -1.890625 3.21875 -1.765625 C 3.257812 -1.640625 3.296875 -1.519531 3.328125 -1.40625 C 3.335938 -1.375 3.347656 -1.335938 3.359375 -1.296875 C 3.367188 -1.265625 3.382812 -1.222656 3.40625 -1.171875 C 3.414062 -1.117188 3.425781 -1.078125 3.4375 -1.046875 C 3.445312 -1.015625 3.453125 -0.992188 3.453125 -0.984375 C 3.453125 -0.984375 3.453125 -0.96875 3.453125 -0.9375 C 3.460938 -0.914062 3.476562 -0.882812 3.5 -0.84375 C 3.53125 -0.757812 3.546875 -0.703125 3.546875 -0.671875 C 3.546875 -0.660156 3.550781 -0.640625 3.5625 -0.609375 C 3.570312 -0.578125 3.578125 -0.546875 3.578125 -0.515625 C 3.585938 -0.484375 3.597656 -0.453125 3.609375 -0.421875 C 3.617188 -0.398438 3.625 -0.390625 3.625 -0.390625 C 3.625 -0.378906 3.640625 -0.335938 3.671875 -0.265625 C 3.671875 -0.242188 3.675781 -0.210938 3.6875 -0.171875 C 3.695312 -0.128906 3.707031 -0.0820312 3.71875 -0.03125 C 3.738281 0.0078125 3.753906 0.046875 3.765625 0.078125 C 3.773438 0.117188 3.785156 0.144531 3.796875 0.15625 C 3.796875 0.164062 3.800781 0.1875 3.8125 0.21875 C 3.820312 0.257812 3.828125 0.285156 3.828125 0.296875 C 3.835938 0.316406 3.84375 0.332031 3.84375 0.34375 C 3.84375 0.363281 3.847656 0.378906 3.859375 0.390625 C 3.859375 0.398438 3.851562 0.40625 3.84375 0.40625 C 3.820312 0.40625 3.769531 0.40625 3.6875 0.40625 C 3.601562 0.40625 3.488281 0.40625 3.34375 0.40625 L 2.796875 0.40625 L 2.765625 0.34375 C 2.753906 0.332031 2.742188 0.3125 2.734375 0.28125 C 2.734375 0.25 2.726562 0.21875 2.71875 0.1875 C 2.71875 0.175781 2.710938 0.15625 2.703125 0.125 C 2.703125 0.101562 2.695312 0.0703125 2.6875 0.03125 C 2.675781 0 2.664062 -0.03125 2.65625 -0.0625 C 2.644531 -0.101562 2.632812 -0.140625 2.625 -0.171875 L 2.5625 -0.421875 L 1.328125 -0.421875 L 1.328125 -0.390625 C 1.285156 -0.273438 1.25 -0.164062 1.21875 -0.0625 C 1.195312 0.0390625 1.175781 0.140625 1.15625 0.234375 L 1.109375 0.40625 L 0.546875 0.40625 C 0.410156 0.40625 0.296875 0.40625 0.203125 0.40625 C 0.117188 0.40625 0.078125 0.398438 0.078125 0.390625 C 0.179688 0.0664062 0.28125 -0.257812 0.375 -0.59375 C 0.46875 -0.925781 0.5625 -1.257812 0.65625 -1.59375 C 0.65625 -1.601562 0.660156 -1.628906 0.671875 -1.671875 C 0.691406 -1.722656 0.707031 -1.765625 0.71875 -1.796875 C 0.726562 -1.847656 0.738281 -1.898438 0.75 -1.953125 C 0.769531 -2.015625 0.789062 -2.070312 0.8125 -2.125 C 0.820312 -2.175781 0.832031 -2.234375 0.84375 -2.296875 C 0.863281 -2.359375 0.882812 -2.425781 0.90625 -2.5 C 0.90625 -2.507812 0.910156 -2.53125 0.921875 -2.5625 C 0.929688 -2.59375 0.941406 -2.625 0.953125 -2.65625 C 0.960938 -2.695312 0.96875 -2.734375 0.96875 -2.765625 C 0.976562 -2.796875 0.984375 -2.8125 0.984375 -2.8125 C 0.992188 -2.832031 1 -2.851562 1 -2.875 C 1.007812 -2.90625 1.019531 -2.9375 1.03125 -2.96875 C 1.050781 -3.039062 1.066406 -3.082031 1.078125 -3.09375 C 1.078125 -3.113281 1.082031 -3.144531 1.09375 -3.1875 C 1.101562 -3.226562 1.117188 -3.285156 1.140625 -3.359375 C 1.171875 -3.441406 1.1875 -3.492188 1.1875 -3.515625 C 1.1875 -3.578125 1.15625 -3.625 1.09375 -3.65625 Z M 2.015625 -2.484375 C 1.972656 -2.660156 1.945312 -2.75 1.9375 -2.75 C 1.9375 -2.726562 1.921875 -2.660156 1.890625 -2.546875 C 1.878906 -2.515625 1.867188 -2.472656 1.859375 -2.421875 C 1.847656 -2.378906 1.835938 -2.320312 1.828125 -2.25 C 1.816406 -2.226562 1.800781 -2.175781 1.78125 -2.09375 C 1.757812 -2.007812 1.738281 -1.925781 1.71875 -1.84375 C 1.695312 -1.738281 1.671875 -1.628906 1.640625 -1.515625 C 1.597656 -1.367188 1.578125 -1.289062 1.578125 -1.28125 C 1.578125 -1.269531 1.703125 -1.265625 1.953125 -1.265625 L 2.328125 -1.265625 L 2.328125 -1.328125 C 2.296875 -1.441406 2.253906 -1.59375 2.203125 -1.78125 C 2.148438 -1.976562 2.085938 -2.210938 2.015625 -2.484375 Z M 2.015625 -2.484375 "/></g></g></g><g fill="#ffffff" fill-opacity="1"><g transform="translate(76.640596, 33.188724)"><g><path d="M 1.515625 -1.953125 L 1.84375 -1.953125 C 1.925781 -1.953125 1.992188 -1.953125 2.046875 -1.953125 C 2.109375 -1.953125 2.148438 -1.957031 2.171875 -1.96875 C 2.210938 -1.96875 2.265625 -1.984375 2.328125 -2.015625 C 2.398438 -2.054688 2.453125 -2.113281 2.484375 -2.1875 C 2.535156 -2.300781 2.546875 -2.421875 2.515625 -2.546875 C 2.484375 -2.679688 2.410156 -2.769531 2.296875 -2.8125 L 2.234375 -2.84375 L 1.875 -2.859375 L 1.640625 -2.859375 L 1.640625 -3.671875 C 1.828125 -3.671875 1.976562 -3.671875 2.09375 -3.671875 C 2.207031 -3.671875 2.296875 -3.671875 2.359375 -3.671875 C 2.421875 -3.671875 2.46875 -3.671875 2.5 -3.671875 C 2.53125 -3.671875 2.550781 -3.671875 2.5625 -3.671875 C 2.863281 -3.640625 3.109375 -3.550781 3.296875 -3.40625 C 3.484375 -3.257812 3.609375 -3.03125 3.671875 -2.71875 C 3.710938 -2.414062 3.675781 -2.164062 3.5625 -1.96875 C 3.445312 -1.769531 3.265625 -1.648438 3.015625 -1.609375 L 2.9375 -1.609375 L 3.015625 -1.59375 C 3.253906 -1.550781 3.414062 -1.429688 3.5 -1.234375 C 3.53125 -1.179688 3.550781 -1.109375 3.5625 -1.015625 C 3.582031 -0.921875 3.597656 -0.796875 3.609375 -0.640625 C 3.648438 -0.078125 3.671875 0.257812 3.671875 0.375 L 3.671875 0.40625 L 2.515625 0.40625 L 2.515625 0.359375 C 2.503906 0.335938 2.5 0.300781 2.5 0.25 C 2.5 0.195312 2.492188 0.128906 2.484375 0.046875 C 2.453125 -0.546875 2.410156 -0.898438 2.359375 -1.015625 C 2.335938 -1.054688 2.273438 -1.085938 2.171875 -1.109375 C 2.128906 -1.109375 2.007812 -1.113281 1.8125 -1.125 L 1.515625 -1.125 L 1.515625 0.40625 L 0.421875 0.40625 L 0.421875 -1.5625 C 0.421875 -2.039062 0.421875 -2.421875 0.421875 -2.703125 C 0.421875 -2.984375 0.421875 -3.175781 0.421875 -3.28125 C 0.410156 -3.46875 0.398438 -3.566406 0.390625 -3.578125 C 0.378906 -3.617188 0.351562 -3.648438 0.3125 -3.671875 C 0.332031 -3.671875 0.359375 -3.671875 0.390625 -3.671875 C 0.410156 -3.671875 0.441406 -3.671875 0.484375 -3.671875 C 0.523438 -3.671875 0.570312 -3.671875 0.625 -3.671875 L 1.515625 -3.671875 Z M 1.515625 -1.953125 "/></g></g></g><g fill="#ffffff" fill-opacity="1"><g transform="translate(81.530141, 33.188724)"><g><path d="M 0.3125 -3.671875 C 0.40625 -3.671875 0.570312 -3.671875 0.8125 -3.671875 C 1.019531 -3.671875 1.3125 -3.671875 1.6875 -3.671875 C 2.070312 -3.671875 2.582031 -3.671875 3.21875 -3.671875 L 3.21875 -2.828125 L 1.5 -2.828125 L 1.5 -0.421875 L 3.375 -0.421875 L 3.375 -0.40625 C 3.375 -0.40625 3.367188 -0.394531 3.359375 -0.375 C 3.359375 -0.351562 3.351562 -0.320312 3.34375 -0.28125 C 3.332031 -0.238281 3.320312 -0.191406 3.3125 -0.140625 C 3.300781 -0.0976562 3.289062 -0.0507812 3.28125 0 C 3.226562 0.257812 3.203125 0.390625 3.203125 0.390625 C 3.191406 0.398438 2.726562 0.40625 1.8125 0.40625 L 0.421875 0.40625 L 0.421875 -1.5625 C 0.421875 -2.226562 0.421875 -2.71875 0.421875 -3.03125 C 0.421875 -3.351562 0.414062 -3.53125 0.40625 -3.5625 C 0.394531 -3.613281 0.363281 -3.648438 0.3125 -3.671875 Z M 1.671875 -2.078125 L 3.125 -2.078125 L 3.125 -1.25 L 1.671875 -1.25 Z M 1.671875 -2.078125 "/></g></g></g><g fill="#ffffff" fill-opacity="1"><g transform="translate(85.946501, 33.188724)"><g/></g></g><g fill="#ffffff" fill-opacity="1"><g transform="translate(87.893615, 33.188724)"><g><path d="M 1.09375 -3.65625 C 1.082031 -3.664062 1.085938 -3.671875 1.109375 -3.671875 C 1.128906 -3.671875 1.203125 -3.671875 1.328125 -3.671875 C 1.460938 -3.671875 1.640625 -3.671875 1.859375 -3.671875 L 2.671875 -3.671875 L 2.703125 -3.5625 C 2.722656 -3.488281 2.757812 -3.375 2.8125 -3.21875 C 2.832031 -3.125 2.851562 -3.046875 2.875 -2.984375 C 2.894531 -2.921875 2.910156 -2.867188 2.921875 -2.828125 C 2.921875 -2.804688 2.945312 -2.710938 3 -2.546875 C 3.050781 -2.390625 3.085938 -2.257812 3.109375 -2.15625 C 3.148438 -2.019531 3.1875 -1.890625 3.21875 -1.765625 C 3.257812 -1.640625 3.296875 -1.519531 3.328125 -1.40625 C 3.335938 -1.375 3.347656 -1.335938 3.359375 -1.296875 C 3.367188 -1.265625 3.382812 -1.222656 3.40625 -1.171875 C 3.414062 -1.117188 3.425781 -1.078125 3.4375 -1.046875 C 3.445312 -1.015625 3.453125 -0.992188 3.453125 -0.984375 C 3.453125 -0.984375 3.453125 -0.96875 3.453125 -0.9375 C 3.460938 -0.914062 3.476562 -0.882812 3.5 -0.84375 C 3.53125 -0.757812 3.546875 -0.703125 3.546875 -0.671875 C 3.546875 -0.660156 3.550781 -0.640625 3.5625 -0.609375 C 3.570312 -0.578125 3.578125 -0.546875 3.578125 -0.515625 C 3.585938 -0.484375 3.597656 -0.453125 3.609375 -0.421875 C 3.617188 -0.398438 3.625 -0.390625 3.625 -0.390625 C 3.625 -0.378906 3.640625 -0.335938 3.671875 -0.265625 C 3.671875 -0.242188 3.675781 -0.210938 3.6875 -0.171875 C 3.695312 -0.128906 3.707031 -0.0820312 3.71875 -0.03125 C 3.738281 0.0078125 3.753906 0.046875 3.765625 0.078125 C 3.773438 0.117188 3.785156 0.144531 3.796875 0.15625 C 3.796875 0.164062 3.800781 0.1875 3.8125 0.21875 C 3.820312 0.257812 3.828125 0.285156 3.828125 0.296875 C 3.835938 0.316406 3.84375 0.332031 3.84375 0.34375 C 3.84375 0.363281 3.847656 0.378906 3.859375 0.390625 C 3.859375 0.398438 3.851562 0.40625 3.84375 0.40625 C 3.820312 0.40625 3.769531 0.40625 3.6875 0.40625 C 3.601562 0.40625 3.488281 0.40625 3.34375 0.40625 L 2.796875 0.40625 L 2.765625 0.34375 C 2.753906 0.332031 2.742188 0.3125 2.734375 0.28125 C 2.734375 0.25 2.726562 0.21875 2.71875 0.1875 C 2.71875 0.175781 2.710938 0.15625 2.703125 0.125 C 2.703125 0.101562 2.695312 0.0703125 2.6875 0.03125 C 2.675781 0 2.664062 -0.03125 2.65625 -0.0625 C 2.644531 -0.101562 2.632812 -0.140625 2.625 -0.171875 L 2.5625 -0.421875 L 1.328125 -0.421875 L 1.328125 -0.390625 C 1.285156 -0.273438 1.25 -0.164062 1.21875 -0.0625 C 1.195312 0.0390625 1.175781 0.140625 1.15625 0.234375 L 1.109375 0.40625 L 0.546875 0.40625 C 0.410156 0.40625 0.296875 0.40625 0.203125 0.40625 C 0.117188 0.40625 0.078125 0.398438 0.078125 0.390625 C 0.179688 0.0664062 0.28125 -0.257812 0.375 -0.59375 C 0.46875 -0.925781 0.5625 -1.257812 0.65625 -1.59375 C 0.65625 -1.601562 0.660156 -1.628906 0.671875 -1.671875 C 0.691406 -1.722656 0.707031 -1.765625 0.71875 -1.796875 C 0.726562 -1.847656 0.738281 -1.898438 0.75 -1.953125 C 0.769531 -2.015625 0.789062 -2.070312 0.8125 -2.125 C 0.820312 -2.175781 0.832031 -2.234375 0.84375 -2.296875 C 0.863281 -2.359375 0.882812 -2.425781 0.90625 -2.5 C 0.90625 -2.507812 0.910156 -2.53125 0.921875 -2.5625 C 0.929688 -2.59375 0.941406 -2.625 0.953125 -2.65625 C 0.960938 -2.695312 0.96875 -2.734375 0.96875 -2.765625 C 0.976562 -2.796875 0.984375 -2.8125 0.984375 -2.8125 C 0.992188 -2.832031 1 -2.851562 1 -2.875 C 1.007812 -2.90625 1.019531 -2.9375 1.03125 -2.96875 C 1.050781 -3.039062 1.066406 -3.082031 1.078125 -3.09375 C 1.078125 -3.113281 1.082031 -3.144531 1.09375 -3.1875 C 1.101562 -3.226562 1.117188 -3.285156 1.140625 -3.359375 C 1.171875 -3.441406 1.1875 -3.492188 1.1875 -3.515625 C 1.1875 -3.578125 1.15625 -3.625 1.09375 -3.65625 Z M 2.015625 -2.484375 C 1.972656 -2.660156 1.945312 -2.75 1.9375 -2.75 C 1.9375 -2.726562 1.921875 -2.660156 1.890625 -2.546875 C 1.878906 -2.515625 1.867188 -2.472656 1.859375 -2.421875 C 1.847656 -2.378906 1.835938 -2.320312 1.828125 -2.25 C 1.816406 -2.226562 1.800781 -2.175781 1.78125 -2.09375 C 1.757812 -2.007812 1.738281 -1.925781 1.71875 -1.84375 C 1.695312 -1.738281 1.671875 -1.628906 1.640625 -1.515625 C 1.597656 -1.367188 1.578125 -1.289062 1.578125 -1.28125 C 1.578125 -1.269531 1.703125 -1.265625 1.953125 -1.265625 L 2.328125 -1.265625 L 2.328125 -1.328125 C 2.296875 -1.441406 2.253906 -1.59375 2.203125 -1.78125 C 2.148438 -1.976562 2.085938 -2.210938 2.015625 -2.484375 Z M 2.015625 -2.484375 "/></g></g></g><g fill="#ffffff" fill-opacity="1"><g transform="translate(92.696134, 33.188724)"><g><path d="M 0.3125 -3.671875 L 1.5 -3.671875 L 1.5 0.40625 L 0.40625 0.40625 L 0.40625 -1.890625 C 0.40625 -2.316406 0.40625 -2.65625 0.40625 -2.90625 C 0.40625 -3.15625 0.398438 -3.316406 0.390625 -3.390625 C 0.390625 -3.523438 0.378906 -3.601562 0.359375 -3.625 L 0.359375 -3.640625 C 0.347656 -3.648438 0.335938 -3.65625 0.328125 -3.65625 C 0.328125 -3.664062 0.320312 -3.671875 0.3125 -3.671875 Z M 1.640625 -3.671875 L 1.828125 -3.671875 L 1.921875 -3.46875 C 1.941406 -3.4375 1.96875 -3.375 2 -3.28125 C 2.03125 -3.1875 2.050781 -3.128906 2.0625 -3.109375 C 2.125 -2.960938 2.191406 -2.789062 2.265625 -2.59375 C 2.347656 -2.40625 2.4375 -2.1875 2.53125 -1.9375 C 2.726562 -1.445312 2.847656 -1.128906 2.890625 -0.984375 L 2.921875 -0.921875 L 2.921875 -2.5625 C 2.910156 -3.25 2.898438 -3.597656 2.890625 -3.609375 C 2.878906 -3.628906 2.859375 -3.648438 2.828125 -3.671875 L 3.984375 -3.671875 L 3.984375 0.40625 L 2.59375 0.40625 L 2.4375 -0.015625 C 2.300781 -0.335938 2.171875 -0.640625 2.046875 -0.921875 C 1.929688 -1.210938 1.816406 -1.488281 1.703125 -1.75 L 1.640625 -1.890625 Z M 1.640625 -3.671875 "/></g></g></g><g fill="#ffffff" fill-opacity="1"><g transform="translate(97.955521, 33.188724)"><g><path d="M 0.328125 -3.671875 C 0.316406 -3.671875 0.316406 -3.671875 0.328125 -3.671875 C 0.347656 -3.671875 0.40625 -3.671875 0.5 -3.671875 C 0.59375 -3.671875 0.722656 -3.671875 0.890625 -3.671875 L 1.5 -3.671875 L 1.5 0.40625 L 0.390625 0.40625 L 0.390625 -3.578125 L 0.375 -3.609375 C 0.351562 -3.640625 0.335938 -3.660156 0.328125 -3.671875 Z M 1.890625 -3.703125 C 1.929688 -3.703125 1.972656 -3.703125 2.015625 -3.703125 C 2.066406 -3.710938 2.128906 -3.710938 2.203125 -3.703125 C 2.347656 -3.703125 2.484375 -3.6875 2.609375 -3.65625 C 2.742188 -3.632812 2.863281 -3.59375 2.96875 -3.53125 C 3.070312 -3.476562 3.171875 -3.410156 3.265625 -3.328125 C 3.359375 -3.242188 3.453125 -3.132812 3.546875 -3 C 3.703125 -2.75 3.8125 -2.46875 3.875 -2.15625 C 3.925781 -1.863281 3.941406 -1.582031 3.921875 -1.3125 C 3.890625 -1.050781 3.828125 -0.8125 3.734375 -0.59375 C 3.640625 -0.382812 3.507812 -0.203125 3.34375 -0.046875 C 3.1875 0.109375 3 0.226562 2.78125 0.3125 C 2.570312 0.394531 2.332031 0.4375 2.0625 0.4375 C 1.988281 0.4375 1.914062 0.429688 1.84375 0.421875 C 1.78125 0.410156 1.71875 0.398438 1.65625 0.390625 C 1.644531 0.378906 1.640625 0.25 1.640625 0 L 1.640625 -0.375 L 1.8125 -0.375 C 2 -0.375 2.148438 -0.398438 2.265625 -0.453125 C 2.390625 -0.515625 2.488281 -0.59375 2.5625 -0.6875 C 2.644531 -0.789062 2.703125 -0.910156 2.734375 -1.046875 C 2.773438 -1.191406 2.796875 -1.351562 2.796875 -1.53125 C 2.804688 -1.664062 2.800781 -1.8125 2.78125 -1.96875 C 2.769531 -2.125 2.742188 -2.265625 2.703125 -2.390625 C 2.671875 -2.492188 2.625 -2.570312 2.5625 -2.625 C 2.5 -2.6875 2.429688 -2.738281 2.359375 -2.78125 C 2.285156 -2.820312 2.207031 -2.847656 2.125 -2.859375 C 2.039062 -2.878906 1.953125 -2.890625 1.859375 -2.890625 L 1.640625 -2.90625 L 1.640625 -3.65625 L 1.734375 -3.671875 C 1.796875 -3.691406 1.847656 -3.703125 1.890625 -3.703125 Z M 1.890625 -3.703125 "/></g></g></g><g fill="#ffffff" fill-opacity="1"><g transform="translate(103.002024, 33.188724)"><g/></g></g><g fill="#ffffff" fill-opacity="1"><g transform="translate(104.94914, 33.188724)"><g/></g></g><g fill="#ffffff" fill-opacity="1"><g transform="translate(106.897026, 33.188724)"><g><path d="M 1.59375 -3.703125 C 1.613281 -3.710938 1.644531 -3.71875 1.6875 -3.71875 C 1.726562 -3.71875 1.785156 -3.71875 1.859375 -3.71875 C 1.972656 -3.707031 2.082031 -3.695312 2.1875 -3.6875 C 2.289062 -3.675781 2.390625 -3.65625 2.484375 -3.625 C 2.585938 -3.601562 2.6875 -3.566406 2.78125 -3.515625 C 2.875 -3.472656 2.960938 -3.410156 3.046875 -3.328125 C 3.191406 -3.191406 3.296875 -3.035156 3.359375 -2.859375 C 3.359375 -2.835938 3.363281 -2.8125 3.375 -2.78125 C 3.382812 -2.75 3.394531 -2.71875 3.40625 -2.6875 C 3.414062 -2.644531 3.421875 -2.609375 3.421875 -2.578125 C 3.429688 -2.554688 3.4375 -2.539062 3.4375 -2.53125 L 3.4375 -2.5 L 2.359375 -2.5 L 2.359375 -2.5625 C 2.347656 -2.625 2.320312 -2.675781 2.28125 -2.71875 C 2.238281 -2.769531 2.191406 -2.8125 2.140625 -2.84375 C 2.085938 -2.875 2.03125 -2.894531 1.96875 -2.90625 C 1.90625 -2.925781 1.84375 -2.9375 1.78125 -2.9375 C 1.5625 -2.9375 1.445312 -2.832031 1.4375 -2.625 C 1.4375 -2.539062 1.476562 -2.46875 1.5625 -2.40625 C 1.65625 -2.34375 1.8125 -2.28125 2.03125 -2.21875 C 2.207031 -2.15625 2.359375 -2.101562 2.484375 -2.0625 C 2.609375 -2.019531 2.710938 -1.976562 2.796875 -1.9375 C 2.878906 -1.894531 2.953125 -1.851562 3.015625 -1.8125 C 3.078125 -1.769531 3.128906 -1.726562 3.171875 -1.6875 C 3.296875 -1.570312 3.390625 -1.4375 3.453125 -1.28125 C 3.515625 -1.125 3.539062 -0.960938 3.53125 -0.796875 C 3.519531 -0.554688 3.460938 -0.359375 3.359375 -0.203125 C 3.253906 -0.046875 3.117188 0.078125 2.953125 0.171875 C 2.785156 0.273438 2.601562 0.347656 2.40625 0.390625 C 2.207031 0.429688 2.003906 0.457031 1.796875 0.46875 C 1.609375 0.46875 1.429688 0.445312 1.265625 0.40625 C 1.109375 0.363281 0.960938 0.300781 0.828125 0.21875 C 0.691406 0.132812 0.578125 0.0234375 0.484375 -0.109375 C 0.390625 -0.242188 0.316406 -0.40625 0.265625 -0.59375 C 0.234375 -0.707031 0.21875 -0.796875 0.21875 -0.859375 C 0.21875 -0.867188 0.394531 -0.875 0.75 -0.875 L 1.3125 -0.875 L 1.3125 -0.796875 C 1.332031 -0.691406 1.378906 -0.597656 1.453125 -0.515625 C 1.523438 -0.429688 1.609375 -0.375 1.703125 -0.34375 C 1.722656 -0.34375 1.75 -0.335938 1.78125 -0.328125 C 1.8125 -0.328125 1.847656 -0.328125 1.890625 -0.328125 C 1.984375 -0.328125 2.070312 -0.34375 2.15625 -0.375 C 2.238281 -0.40625 2.296875 -0.46875 2.328125 -0.5625 C 2.367188 -0.644531 2.375 -0.734375 2.34375 -0.828125 C 2.3125 -0.929688 2.269531 -1.003906 2.21875 -1.046875 C 2.144531 -1.097656 1.957031 -1.164062 1.65625 -1.25 C 1.507812 -1.289062 1.378906 -1.332031 1.265625 -1.375 C 1.148438 -1.414062 1.050781 -1.457031 0.96875 -1.5 C 0.726562 -1.613281 0.554688 -1.753906 0.453125 -1.921875 C 0.347656 -2.085938 0.304688 -2.3125 0.328125 -2.59375 C 0.328125 -2.757812 0.359375 -2.90625 0.421875 -3.03125 C 0.484375 -3.164062 0.566406 -3.273438 0.671875 -3.359375 C 0.773438 -3.453125 0.894531 -3.523438 1.03125 -3.578125 C 1.164062 -3.640625 1.316406 -3.679688 1.484375 -3.703125 C 1.503906 -3.703125 1.523438 -3.703125 1.546875 -3.703125 C 1.578125 -3.703125 1.59375 -3.703125 1.59375 -3.703125 Z M 1.59375 -3.703125 "/></g></g></g><g fill="#ffffff" fill-opacity="1"><g transform="translate(111.492874, 33.188724)"><g><path d="M 1.984375 -3.703125 C 2.015625 -3.710938 2.039062 -3.71875 2.0625 -3.71875 C 2.070312 -3.71875 2.085938 -3.71875 2.109375 -3.71875 L 2.125 -3.71875 L 2.125 -3.296875 C 2.125 -3.015625 2.117188 -2.875 2.109375 -2.875 C 2.046875 -2.875 1.960938 -2.847656 1.859375 -2.796875 C 1.535156 -2.640625 1.382812 -2.234375 1.40625 -1.578125 C 1.40625 -1.460938 1.414062 -1.335938 1.4375 -1.203125 C 1.457031 -1.078125 1.492188 -0.953125 1.546875 -0.828125 C 1.597656 -0.703125 1.664062 -0.59375 1.75 -0.5 C 1.832031 -0.414062 1.941406 -0.363281 2.078125 -0.34375 L 2.125 -0.34375 L 2.125 0.46875 L 2.078125 0.46875 C 1.929688 0.46875 1.785156 0.453125 1.640625 0.421875 C 1.503906 0.390625 1.375 0.335938 1.25 0.265625 C 1.125 0.203125 1.003906 0.125 0.890625 0.03125 C 0.785156 -0.0625 0.691406 -0.164062 0.609375 -0.28125 C 0.421875 -0.550781 0.300781 -0.894531 0.25 -1.3125 C 0.25 -1.34375 0.25 -1.382812 0.25 -1.4375 C 0.25 -1.5 0.25 -1.570312 0.25 -1.65625 C 0.25 -1.738281 0.25 -1.804688 0.25 -1.859375 C 0.25 -1.921875 0.25 -1.96875 0.25 -2 C 0.28125 -2.175781 0.328125 -2.347656 0.390625 -2.515625 C 0.453125 -2.679688 0.53125 -2.832031 0.625 -2.96875 C 0.726562 -3.113281 0.847656 -3.238281 0.984375 -3.34375 C 1.117188 -3.445312 1.273438 -3.53125 1.453125 -3.59375 C 1.609375 -3.65625 1.785156 -3.691406 1.984375 -3.703125 Z M 2.25 -3.296875 L 2.25 -3.71875 L 2.296875 -3.71875 C 2.441406 -3.71875 2.585938 -3.695312 2.734375 -3.65625 C 2.878906 -3.625 3.015625 -3.570312 3.140625 -3.5 C 3.265625 -3.425781 3.382812 -3.335938 3.5 -3.234375 C 3.613281 -3.140625 3.707031 -3.03125 3.78125 -2.90625 C 3.96875 -2.625 4.085938 -2.304688 4.140625 -1.953125 C 4.148438 -1.921875 4.15625 -1.875 4.15625 -1.8125 C 4.15625 -1.757812 4.15625 -1.695312 4.15625 -1.625 C 4.144531 -1.414062 4.117188 -1.207031 4.078125 -1 C 4.035156 -0.800781 3.957031 -0.609375 3.84375 -0.421875 C 3.6875 -0.171875 3.492188 0.0234375 3.265625 0.171875 C 3.035156 0.328125 2.765625 0.421875 2.453125 0.453125 C 2.429688 0.460938 2.40625 0.46875 2.375 0.46875 C 2.351562 0.46875 2.335938 0.46875 2.328125 0.46875 L 2.28125 0.46875 L 2.28125 0.25 C 2.269531 0.113281 2.269531 -0.015625 2.28125 -0.140625 L 2.28125 -0.34375 L 2.359375 -0.359375 C 2.492188 -0.398438 2.601562 -0.460938 2.6875 -0.546875 C 2.769531 -0.628906 2.832031 -0.722656 2.875 -0.828125 C 2.914062 -0.941406 2.945312 -1.0625 2.96875 -1.1875 C 2.988281 -1.3125 3 -1.4375 3 -1.5625 C 3.007812 -1.832031 2.976562 -2.078125 2.90625 -2.296875 C 2.789062 -2.640625 2.601562 -2.832031 2.34375 -2.875 L 2.25 -2.890625 Z M 2.25 -3.296875 "/></g></g></g><g fill="#ffffff" fill-opacity="1"><g transform="translate(116.752263, 33.188724)"><g><path d="M 2.15625 -3.703125 L 2.25 -3.703125 C 2.425781 -3.703125 2.597656 -3.675781 2.765625 -3.625 C 2.929688 -3.582031 3.082031 -3.515625 3.21875 -3.421875 C 3.351562 -3.328125 3.472656 -3.207031 3.578125 -3.0625 C 3.679688 -2.925781 3.753906 -2.769531 3.796875 -2.59375 C 3.816406 -2.53125 3.828125 -2.476562 3.828125 -2.4375 C 3.835938 -2.394531 3.84375 -2.363281 3.84375 -2.34375 L 3.84375 -2.3125 L 2.765625 -2.3125 L 2.75 -2.359375 C 2.726562 -2.429688 2.691406 -2.503906 2.640625 -2.578125 C 2.597656 -2.660156 2.550781 -2.71875 2.5 -2.75 C 2.425781 -2.8125 2.320312 -2.851562 2.1875 -2.875 L 2.15625 -2.875 Z M 1.90625 -3.703125 C 1.914062 -3.703125 1.941406 -3.703125 1.984375 -3.703125 L 2.015625 -3.703125 L 2.015625 -2.890625 L 1.96875 -2.875 C 1.863281 -2.832031 1.769531 -2.753906 1.6875 -2.640625 C 1.601562 -2.535156 1.535156 -2.40625 1.484375 -2.25 C 1.453125 -2.15625 1.429688 -2.046875 1.421875 -1.921875 C 1.410156 -1.804688 1.40625 -1.679688 1.40625 -1.546875 C 1.414062 -1.460938 1.425781 -1.363281 1.4375 -1.25 C 1.457031 -1.132812 1.484375 -1.023438 1.515625 -0.921875 C 1.546875 -0.816406 1.585938 -0.71875 1.640625 -0.625 C 1.703125 -0.539062 1.773438 -0.472656 1.859375 -0.421875 C 1.878906 -0.421875 1.898438 -0.414062 1.921875 -0.40625 C 1.941406 -0.40625 1.960938 -0.398438 1.984375 -0.390625 L 2.03125 -0.375 L 2.03125 0.453125 L 1.9375 0.4375 C 1.445312 0.40625 1.0625 0.253906 0.78125 -0.015625 C 0.5 -0.296875 0.328125 -0.671875 0.265625 -1.140625 C 0.265625 -1.171875 0.257812 -1.210938 0.25 -1.265625 C 0.25 -1.328125 0.25 -1.394531 0.25 -1.46875 C 0.238281 -1.632812 0.238281 -1.757812 0.25 -1.84375 C 0.300781 -2.34375 0.46875 -2.753906 0.75 -3.078125 C 1.03125 -3.410156 1.414062 -3.617188 1.90625 -3.703125 Z M 2.75 -0.921875 L 2.765625 -0.96875 L 3.328125 -0.96875 C 3.691406 -0.96875 3.875 -0.960938 3.875 -0.953125 C 3.875 -0.953125 3.867188 -0.914062 3.859375 -0.84375 C 3.816406 -0.632812 3.75 -0.453125 3.65625 -0.296875 C 3.570312 -0.140625 3.457031 -0.0078125 3.3125 0.09375 C 3.175781 0.207031 3.019531 0.289062 2.84375 0.34375 C 2.664062 0.40625 2.476562 0.441406 2.28125 0.453125 L 2.15625 0.453125 L 2.15625 -0.359375 L 2.203125 -0.375 C 2.347656 -0.382812 2.460938 -0.429688 2.546875 -0.515625 C 2.640625 -0.617188 2.707031 -0.753906 2.75 -0.921875 Z M 2.75 -0.921875 "/></g></g></g><g fill="#ffffff" fill-opacity="1"><g transform="translate(121.674442, 33.188724)"><g><path d="M 0.359375 -3.65625 L 0.3125 -3.671875 L 1.53125 -3.671875 L 1.53125 0.40625 L 0.4375 0.40625 L 0.4375 -3.546875 L 0.421875 -3.59375 C 0.398438 -3.613281 0.378906 -3.632812 0.359375 -3.65625 Z M 0.359375 -3.65625 "/></g></g></g><g fill="#ffffff" fill-opacity="1"><g transform="translate(124.480899, 33.188724)"><g><path d="M 1.09375 -3.65625 C 1.082031 -3.664062 1.085938 -3.671875 1.109375 -3.671875 C 1.128906 -3.671875 1.203125 -3.671875 1.328125 -3.671875 C 1.460938 -3.671875 1.640625 -3.671875 1.859375 -3.671875 L 2.671875 -3.671875 L 2.703125 -3.5625 C 2.722656 -3.488281 2.757812 -3.375 2.8125 -3.21875 C 2.832031 -3.125 2.851562 -3.046875 2.875 -2.984375 C 2.894531 -2.921875 2.910156 -2.867188 2.921875 -2.828125 C 2.921875 -2.804688 2.945312 -2.710938 3 -2.546875 C 3.050781 -2.390625 3.085938 -2.257812 3.109375 -2.15625 C 3.148438 -2.019531 3.1875 -1.890625 3.21875 -1.765625 C 3.257812 -1.640625 3.296875 -1.519531 3.328125 -1.40625 C 3.335938 -1.375 3.347656 -1.335938 3.359375 -1.296875 C 3.367188 -1.265625 3.382812 -1.222656 3.40625 -1.171875 C 3.414062 -1.117188 3.425781 -1.078125 3.4375 -1.046875 C 3.445312 -1.015625 3.453125 -0.992188 3.453125 -0.984375 C 3.453125 -0.984375 3.453125 -0.96875 3.453125 -0.9375 C 3.460938 -0.914062 3.476562 -0.882812 3.5 -0.84375 C 3.53125 -0.757812 3.546875 -0.703125 3.546875 -0.671875 C 3.546875 -0.660156 3.550781 -0.640625 3.5625 -0.609375 C 3.570312 -0.578125 3.578125 -0.546875 3.578125 -0.515625 C 3.585938 -0.484375 3.597656 -0.453125 3.609375 -0.421875 C 3.617188 -0.398438 3.625 -0.390625 3.625 -0.390625 C 3.625 -0.378906 3.640625 -0.335938 3.671875 -0.265625 C 3.671875 -0.242188 3.675781 -0.210938 3.6875 -0.171875 C 3.695312 -0.128906 3.707031 -0.0820312 3.71875 -0.03125 C 3.738281 0.0078125 3.753906 0.046875 3.765625 0.078125 C 3.773438 0.117188 3.785156 0.144531 3.796875 0.15625 C 3.796875 0.164062 3.800781 0.1875 3.8125 0.21875 C 3.820312 0.257812 3.828125 0.285156 3.828125 0.296875 C 3.835938 0.316406 3.84375 0.332031 3.84375 0.34375 C 3.84375 0.363281 3.847656 0.378906 3.859375 0.390625 C 3.859375 0.398438 3.851562 0.40625 3.84375 0.40625 C 3.820312 0.40625 3.769531 0.40625 3.6875 0.40625 C 3.601562 0.40625 3.488281 0.40625 3.34375 0.40625 L 2.796875 0.40625 L 2.765625 0.34375 C 2.753906 0.332031 2.742188 0.3125 2.734375 0.28125 C 2.734375 0.25 2.726562 0.21875 2.71875 0.1875 C 2.71875 0.175781 2.710938 0.15625 2.703125 0.125 C 2.703125 0.101562 2.695312 0.0703125 2.6875 0.03125 C 2.675781 0 2.664062 -0.03125 2.65625 -0.0625 C 2.644531 -0.101562 2.632812 -0.140625 2.625 -0.171875 L 2.5625 -0.421875 L 1.328125 -0.421875 L 1.328125 -0.390625 C 1.285156 -0.273438 1.25 -0.164062 1.21875 -0.0625 C 1.195312 0.0390625 1.175781 0.140625 1.15625 0.234375 L 1.109375 0.40625 L 0.546875 0.40625 C 0.410156 0.40625 0.296875 0.40625 0.203125 0.40625 C 0.117188 0.40625 0.078125 0.398438 0.078125 0.390625 C 0.179688 0.0664062 0.28125 -0.257812 0.375 -0.59375 C 0.46875 -0.925781 0.5625 -1.257812 0.65625 -1.59375 C 0.65625 -1.601562 0.660156 -1.628906 0.671875 -1.671875 C 0.691406 -1.722656 0.707031 -1.765625 0.71875 -1.796875 C 0.726562 -1.847656 0.738281 -1.898438 0.75 -1.953125 C 0.769531 -2.015625 0.789062 -2.070312 0.8125 -2.125 C 0.820312 -2.175781 0.832031 -2.234375 0.84375 -2.296875 C 0.863281 -2.359375 0.882812 -2.425781 0.90625 -2.5 C 0.90625 -2.507812 0.910156 -2.53125 0.921875 -2.5625 C 0.929688 -2.59375 0.941406 -2.625 0.953125 -2.65625 C 0.960938 -2.695312 0.96875 -2.734375 0.96875 -2.765625 C 0.976562 -2.796875 0.984375 -2.8125 0.984375 -2.8125 C 0.992188 -2.832031 1 -2.851562 1 -2.875 C 1.007812 -2.90625 1.019531 -2.9375 1.03125 -2.96875 C 1.050781 -3.039062 1.066406 -3.082031 1.078125 -3.09375 C 1.078125 -3.113281 1.082031 -3.144531 1.09375 -3.1875 C 1.101562 -3.226562 1.117188 -3.285156 1.140625 -3.359375 C 1.171875 -3.441406 1.1875 -3.492188 1.1875 -3.515625 C 1.1875 -3.578125 1.15625 -3.625 1.09375 -3.65625 Z M 2.015625 -2.484375 C 1.972656 -2.660156 1.945312 -2.75 1.9375 -2.75 C 1.9375 -2.726562 1.921875 -2.660156 1.890625 -2.546875 C 1.878906 -2.515625 1.867188 -2.472656 1.859375 -2.421875 C 1.847656 -2.378906 1.835938 -2.320312 1.828125 -2.25 C 1.816406 -2.226562 1.800781 -2.175781 1.78125 -2.09375 C 1.757812 -2.007812 1.738281 -1.925781 1.71875 -1.84375 C 1.695312 -1.738281 1.671875 -1.628906 1.640625 -1.515625 C 1.597656 -1.367188 1.578125 -1.289062 1.578125 -1.28125 C 1.578125 -1.269531 1.703125 -1.265625 1.953125 -1.265625 L 2.328125 -1.265625 L 2.328125 -1.328125 C 2.296875 -1.441406 2.253906 -1.59375 2.203125 -1.78125 C 2.148438 -1.976562 2.085938 -2.210938 2.015625 -2.484375 Z M 2.015625 -2.484375 "/></g></g></g><g fill="#ffffff" fill-opacity="1"><g transform="translate(129.28342, 33.188724)"><g><path d="M 0.328125 -3.65625 C 0.304688 -3.664062 0.3125 -3.671875 0.34375 -3.671875 C 0.351562 -3.671875 0.40625 -3.671875 0.5 -3.671875 C 0.59375 -3.671875 0.726562 -3.671875 0.90625 -3.671875 L 1.515625 -3.671875 L 1.515625 -0.421875 L 3.265625 -0.421875 L 3.1875 -0.015625 C 3.164062 0.0546875 3.148438 0.117188 3.140625 0.171875 C 3.128906 0.222656 3.125 0.265625 3.125 0.296875 C 3.113281 0.335938 3.101562 0.375 3.09375 0.40625 C 3.09375 0.40625 2.648438 0.40625 1.765625 0.40625 L 0.421875 0.40625 L 0.421875 -1.5625 C 0.421875 -2.875 0.414062 -3.539062 0.40625 -3.5625 C 0.394531 -3.601562 0.367188 -3.632812 0.328125 -3.65625 Z M 0.328125 -3.65625 "/></g></g></g><g fill="#ffffff" fill-opacity="1"><g transform="translate(133.552931, 33.188724)"><g/></g></g><g fill="#ffffff" fill-opacity="1"><g transform="translate(135.500046, 33.188724)"><g><path d="M 0.328125 -3.65625 C 0.316406 -3.664062 0.316406 -3.671875 0.328125 -3.671875 C 0.347656 -3.671875 0.425781 -3.671875 0.5625 -3.671875 C 0.707031 -3.671875 0.910156 -3.671875 1.171875 -3.671875 C 1.765625 -3.671875 2.066406 -3.671875 2.078125 -3.671875 C 2.078125 -3.628906 2.113281 -3.445312 2.1875 -3.125 C 2.1875 -3.125 2.1875 -3.109375 2.1875 -3.078125 C 2.195312 -3.054688 2.203125 -3.023438 2.203125 -2.984375 C 2.210938 -2.953125 2.21875 -2.921875 2.21875 -2.890625 C 2.226562 -2.859375 2.238281 -2.835938 2.25 -2.828125 C 2.300781 -2.566406 2.351562 -2.304688 2.40625 -2.046875 C 2.457031 -1.796875 2.507812 -1.539062 2.5625 -1.28125 C 2.582031 -1.175781 2.59375 -1.125 2.59375 -1.125 L 2.671875 -1.375 C 2.679688 -1.425781 2.695312 -1.5 2.71875 -1.59375 C 2.738281 -1.6875 2.765625 -1.804688 2.796875 -1.953125 C 2.828125 -2.046875 2.851562 -2.140625 2.875 -2.234375 C 2.894531 -2.328125 2.914062 -2.425781 2.9375 -2.53125 C 2.957031 -2.59375 2.972656 -2.65625 2.984375 -2.71875 C 2.992188 -2.78125 3.003906 -2.84375 3.015625 -2.90625 C 3.035156 -2.96875 3.050781 -3.03125 3.0625 -3.09375 C 3.15625 -3.445312 3.203125 -3.628906 3.203125 -3.640625 L 3.203125 -3.671875 L 4.796875 -3.671875 L 4.796875 0.40625 L 3.734375 0.40625 L 3.734375 -2.875 L 3.6875 -2.65625 C 3.570312 -2.226562 3.460938 -1.78125 3.359375 -1.3125 C 3.253906 -0.84375 3.15625 -0.351562 3.0625 0.15625 L 3.015625 0.40625 L 2.078125 0.40625 L 2.046875 0.234375 C 1.992188 -0.046875 1.945312 -0.296875 1.90625 -0.515625 C 1.863281 -0.742188 1.828125 -0.941406 1.796875 -1.109375 C 1.734375 -1.441406 1.679688 -1.710938 1.640625 -1.921875 C 1.609375 -2.128906 1.582031 -2.28125 1.5625 -2.375 C 1.539062 -2.46875 1.523438 -2.539062 1.515625 -2.59375 C 1.503906 -2.65625 1.5 -2.691406 1.5 -2.703125 C 1.5 -2.722656 1.492188 -2.71875 1.484375 -2.6875 C 1.484375 -2.65625 1.484375 -2.582031 1.484375 -2.46875 C 1.492188 -2.40625 1.492188 -2.332031 1.484375 -2.25 C 1.484375 -2.175781 1.484375 -2.09375 1.484375 -2 C 1.484375 -1.90625 1.484375 -1.789062 1.484375 -1.65625 C 1.484375 -1.519531 1.484375 -1.363281 1.484375 -1.1875 L 1.484375 0.40625 L 0.40625 0.40625 L 0.40625 -1.59375 C 0.40625 -2.082031 0.40625 -2.472656 0.40625 -2.765625 C 0.40625 -3.054688 0.398438 -3.242188 0.390625 -3.328125 C 0.390625 -3.503906 0.382812 -3.597656 0.375 -3.609375 C 0.363281 -3.628906 0.347656 -3.644531 0.328125 -3.65625 Z M 0.328125 -3.65625 "/></g></g></g><g fill="#ffffff" fill-opacity="1"><g transform="translate(141.569826, 33.188724)"><g><path d="M 0.3125 -3.671875 C 0.40625 -3.671875 0.570312 -3.671875 0.8125 -3.671875 C 1.019531 -3.671875 1.3125 -3.671875 1.6875 -3.671875 C 2.070312 -3.671875 2.582031 -3.671875 3.21875 -3.671875 L 3.21875 -2.828125 L 1.5 -2.828125 L 1.5 -0.421875 L 3.375 -0.421875 L 3.375 -0.40625 C 3.375 -0.40625 3.367188 -0.394531 3.359375 -0.375 C 3.359375 -0.351562 3.351562 -0.320312 3.34375 -0.28125 C 3.332031 -0.238281 3.320312 -0.191406 3.3125 -0.140625 C 3.300781 -0.0976562 3.289062 -0.0507812 3.28125 0 C 3.226562 0.257812 3.203125 0.390625 3.203125 0.390625 C 3.191406 0.398438 2.726562 0.40625 1.8125 0.40625 L 0.421875 0.40625 L 0.421875 -1.5625 C 0.421875 -2.226562 0.421875 -2.71875 0.421875 -3.03125 C 0.421875 -3.351562 0.414062 -3.53125 0.40625 -3.5625 C 0.394531 -3.613281 0.363281 -3.648438 0.3125 -3.671875 Z M 1.671875 -2.078125 L 3.125 -2.078125 L 3.125 -1.25 L 1.671875 -1.25 Z M 1.671875 -2.078125 "/></g></g></g><g fill="#ffffff" fill-opacity="1"><g transform="translate(145.986186, 33.188724)"><g><path d="M 0.328125 -3.671875 C 0.316406 -3.671875 0.316406 -3.671875 0.328125 -3.671875 C 0.347656 -3.671875 0.40625 -3.671875 0.5 -3.671875 C 0.59375 -3.671875 0.722656 -3.671875 0.890625 -3.671875 L 1.5 -3.671875 L 1.5 0.40625 L 0.390625 0.40625 L 0.390625 -3.578125 L 0.375 -3.609375 C 0.351562 -3.640625 0.335938 -3.660156 0.328125 -3.671875 Z M 1.890625 -3.703125 C 1.929688 -3.703125 1.972656 -3.703125 2.015625 -3.703125 C 2.066406 -3.710938 2.128906 -3.710938 2.203125 -3.703125 C 2.347656 -3.703125 2.484375 -3.6875 2.609375 -3.65625 C 2.742188 -3.632812 2.863281 -3.59375 2.96875 -3.53125 C 3.070312 -3.476562 3.171875 -3.410156 3.265625 -3.328125 C 3.359375 -3.242188 3.453125 -3.132812 3.546875 -3 C 3.703125 -2.75 3.8125 -2.46875 3.875 -2.15625 C 3.925781 -1.863281 3.941406 -1.582031 3.921875 -1.3125 C 3.890625 -1.050781 3.828125 -0.8125 3.734375 -0.59375 C 3.640625 -0.382812 3.507812 -0.203125 3.34375 -0.046875 C 3.1875 0.109375 3 0.226562 2.78125 0.3125 C 2.570312 0.394531 2.332031 0.4375 2.0625 0.4375 C 1.988281 0.4375 1.914062 0.429688 1.84375 0.421875 C 1.78125 0.410156 1.71875 0.398438 1.65625 0.390625 C 1.644531 0.378906 1.640625 0.25 1.640625 0 L 1.640625 -0.375 L 1.8125 -0.375 C 2 -0.375 2.148438 -0.398438 2.265625 -0.453125 C 2.390625 -0.515625 2.488281 -0.59375 2.5625 -0.6875 C 2.644531 -0.789062 2.703125 -0.910156 2.734375 -1.046875 C 2.773438 -1.191406 2.796875 -1.351562 2.796875 -1.53125 C 2.804688 -1.664062 2.800781 -1.8125 2.78125 -1.96875 C 2.769531 -2.125 2.742188 -2.265625 2.703125 -2.390625 C 2.671875 -2.492188 2.625 -2.570312 2.5625 -2.625 C 2.5 -2.6875 2.429688 -2.738281 2.359375 -2.78125 C 2.285156 -2.820312 2.207031 -2.847656 2.125 -2.859375 C 2.039062 -2.878906 1.953125 -2.890625 1.859375 -2.890625 L 1.640625 -2.90625 L 1.640625 -3.65625 L 1.734375 -3.671875 C 1.796875 -3.691406 1.847656 -3.703125 1.890625 -3.703125 Z M 1.890625 -3.703125 "/></g></g></g><g fill="#ffffff" fill-opacity="1"><g transform="translate(151.028014, 33.188724)"><g><path d="M 0.359375 -3.65625 L 0.3125 -3.671875 L 1.53125 -3.671875 L 1.53125 0.40625 L 0.4375 0.40625 L 0.4375 -3.546875 L 0.421875 -3.59375 C 0.398438 -3.613281 0.378906 -3.632812 0.359375 -3.65625 Z M 0.359375 -3.65625 "/></g></g></g><g fill="#ffffff" fill-opacity="1"><g transform="translate(153.83447, 33.188724)"><g><path d="M 1.09375 -3.65625 C 1.082031 -3.664062 1.085938 -3.671875 1.109375 -3.671875 C 1.128906 -3.671875 1.203125 -3.671875 1.328125 -3.671875 C 1.460938 -3.671875 1.640625 -3.671875 1.859375 -3.671875 L 2.671875 -3.671875 L 2.703125 -3.5625 C 2.722656 -3.488281 2.757812 -3.375 2.8125 -3.21875 C 2.832031 -3.125 2.851562 -3.046875 2.875 -2.984375 C 2.894531 -2.921875 2.910156 -2.867188 2.921875 -2.828125 C 2.921875 -2.804688 2.945312 -2.710938 3 -2.546875 C 3.050781 -2.390625 3.085938 -2.257812 3.109375 -2.15625 C 3.148438 -2.019531 3.1875 -1.890625 3.21875 -1.765625 C 3.257812 -1.640625 3.296875 -1.519531 3.328125 -1.40625 C 3.335938 -1.375 3.347656 -1.335938 3.359375 -1.296875 C 3.367188 -1.265625 3.382812 -1.222656 3.40625 -1.171875 C 3.414062 -1.117188 3.425781 -1.078125 3.4375 -1.046875 C 3.445312 -1.015625 3.453125 -0.992188 3.453125 -0.984375 C 3.453125 -0.984375 3.453125 -0.96875 3.453125 -0.9375 C 3.460938 -0.914062 3.476562 -0.882812 3.5 -0.84375 C 3.53125 -0.757812 3.546875 -0.703125 3.546875 -0.671875 C 3.546875 -0.660156 3.550781 -0.640625 3.5625 -0.609375 C 3.570312 -0.578125 3.578125 -0.546875 3.578125 -0.515625 C 3.585938 -0.484375 3.597656 -0.453125 3.609375 -0.421875 C 3.617188 -0.398438 3.625 -0.390625 3.625 -0.390625 C 3.625 -0.378906 3.640625 -0.335938 3.671875 -0.265625 C 3.671875 -0.242188 3.675781 -0.210938 3.6875 -0.171875 C 3.695312 -0.128906 3.707031 -0.0820312 3.71875 -0.03125 C 3.738281 0.0078125 3.753906 0.046875 3.765625 0.078125 C 3.773438 0.117188 3.785156 0.144531 3.796875 0.15625 C 3.796875 0.164062 3.800781 0.1875 3.8125 0.21875 C 3.820312 0.257812 3.828125 0.285156 3.828125 0.296875 C 3.835938 0.316406 3.84375 0.332031 3.84375 0.34375 C 3.84375 0.363281 3.847656 0.378906 3.859375 0.390625 C 3.859375 0.398438 3.851562 0.40625 3.84375 0.40625 C 3.820312 0.40625 3.769531 0.40625 3.6875 0.40625 C 3.601562 0.40625 3.488281 0.40625 3.34375 0.40625 L 2.796875 0.40625 L 2.765625 0.34375 C 2.753906 0.332031 2.742188 0.3125 2.734375 0.28125 C 2.734375 0.25 2.726562 0.21875 2.71875 0.1875 C 2.71875 0.175781 2.710938 0.15625 2.703125 0.125 C 2.703125 0.101562 2.695312 0.0703125 2.6875 0.03125 C 2.675781 0 2.664062 -0.03125 2.65625 -0.0625 C 2.644531 -0.101562 2.632812 -0.140625 2.625 -0.171875 L 2.5625 -0.421875 L 1.328125 -0.421875 L 1.328125 -0.390625 C 1.285156 -0.273438 1.25 -0.164062 1.21875 -0.0625 C 1.195312 0.0390625 1.175781 0.140625 1.15625 0.234375 L 1.109375 0.40625 L 0.546875 0.40625 C 0.410156 0.40625 0.296875 0.40625 0.203125 0.40625 C 0.117188 0.40625 0.078125 0.398438 0.078125 0.390625 C 0.179688 0.0664062 0.28125 -0.257812 0.375 -0.59375 C 0.46875 -0.925781 0.5625 -1.257812 0.65625 -1.59375 C 0.65625 -1.601562 0.660156 -1.628906 0.671875 -1.671875 C 0.691406 -1.722656 0.707031 -1.765625 0.71875 -1.796875 C 0.726562 -1.847656 0.738281 -1.898438 0.75 -1.953125 C 0.769531 -2.015625 0.789062 -2.070312 0.8125 -2.125 C 0.820312 -2.175781 0.832031 -2.234375 0.84375 -2.296875 C 0.863281 -2.359375 0.882812 -2.425781 0.90625 -2.5 C 0.90625 -2.507812 0.910156 -2.53125 0.921875 -2.5625 C 0.929688 -2.59375 0.941406 -2.625 0.953125 -2.65625 C 0.960938 -2.695312 0.96875 -2.734375 0.96875 -2.765625 C 0.976562 -2.796875 0.984375 -2.8125 0.984375 -2.8125 C 0.992188 -2.832031 1 -2.851562 1 -2.875 C 1.007812 -2.90625 1.019531 -2.9375 1.03125 -2.96875 C 1.050781 -3.039062 1.066406 -3.082031 1.078125 -3.09375 C 1.078125 -3.113281 1.082031 -3.144531 1.09375 -3.1875 C 1.101562 -3.226562 1.117188 -3.285156 1.140625 -3.359375 C 1.171875 -3.441406 1.1875 -3.492188 1.1875 -3.515625 C 1.1875 -3.578125 1.15625 -3.625 1.09375 -3.65625 Z M 2.015625 -2.484375 C 1.972656 -2.660156 1.945312 -2.75 1.9375 -2.75 C 1.9375 -2.726562 1.921875 -2.660156 1.890625 -2.546875 C 1.878906 -2.515625 1.867188 -2.472656 1.859375 -2.421875 C 1.847656 -2.378906 1.835938 -2.320312 1.828125 -2.25 C 1.816406 -2.226562 1.800781 -2.175781 1.78125 -2.09375 C 1.757812 -2.007812 1.738281 -1.925781 1.71875 -1.84375 C 1.695312 -1.738281 1.671875 -1.628906 1.640625 -1.515625 C 1.597656 -1.367188 1.578125 -1.289062 1.578125 -1.28125 C 1.578125 -1.269531 1.703125 -1.265625 1.953125 -1.265625 L 2.328125 -1.265625 L 2.328125 -1.328125 C 2.296875 -1.441406 2.253906 -1.59375 2.203125 -1.78125 C 2.148438 -1.976562 2.085938 -2.210938 2.015625 -2.484375 Z M 2.015625 -2.484375 "/></g></g></g><g fill="#ffffff" fill-opacity="1"><g transform="translate(158.636989, 33.188724)"><g/></g></g><g fill="#ffffff" fill-opacity="1"><g transform="translate(160.584103, 33.188724)"><g><path d="M 0.328125 -3.65625 C 0.316406 -3.664062 0.316406 -3.671875 0.328125 -3.671875 C 0.347656 -3.671875 0.425781 -3.671875 0.5625 -3.671875 C 0.707031 -3.671875 0.910156 -3.671875 1.171875 -3.671875 C 1.765625 -3.671875 2.066406 -3.671875 2.078125 -3.671875 C 2.078125 -3.628906 2.113281 -3.445312 2.1875 -3.125 C 2.1875 -3.125 2.1875 -3.109375 2.1875 -3.078125 C 2.195312 -3.054688 2.203125 -3.023438 2.203125 -2.984375 C 2.210938 -2.953125 2.21875 -2.921875 2.21875 -2.890625 C 2.226562 -2.859375 2.238281 -2.835938 2.25 -2.828125 C 2.300781 -2.566406 2.351562 -2.304688 2.40625 -2.046875 C 2.457031 -1.796875 2.507812 -1.539062 2.5625 -1.28125 C 2.582031 -1.175781 2.59375 -1.125 2.59375 -1.125 L 2.671875 -1.375 C 2.679688 -1.425781 2.695312 -1.5 2.71875 -1.59375 C 2.738281 -1.6875 2.765625 -1.804688 2.796875 -1.953125 C 2.828125 -2.046875 2.851562 -2.140625 2.875 -2.234375 C 2.894531 -2.328125 2.914062 -2.425781 2.9375 -2.53125 C 2.957031 -2.59375 2.972656 -2.65625 2.984375 -2.71875 C 2.992188 -2.78125 3.003906 -2.84375 3.015625 -2.90625 C 3.035156 -2.96875 3.050781 -3.03125 3.0625 -3.09375 C 3.15625 -3.445312 3.203125 -3.628906 3.203125 -3.640625 L 3.203125 -3.671875 L 4.796875 -3.671875 L 4.796875 0.40625 L 3.734375 0.40625 L 3.734375 -2.875 L 3.6875 -2.65625 C 3.570312 -2.226562 3.460938 -1.78125 3.359375 -1.3125 C 3.253906 -0.84375 3.15625 -0.351562 3.0625 0.15625 L 3.015625 0.40625 L 2.078125 0.40625 L 2.046875 0.234375 C 1.992188 -0.046875 1.945312 -0.296875 1.90625 -0.515625 C 1.863281 -0.742188 1.828125 -0.941406 1.796875 -1.109375 C 1.734375 -1.441406 1.679688 -1.710938 1.640625 -1.921875 C 1.609375 -2.128906 1.582031 -2.28125 1.5625 -2.375 C 1.539062 -2.46875 1.523438 -2.539062 1.515625 -2.59375 C 1.503906 -2.65625 1.5 -2.691406 1.5 -2.703125 C 1.5 -2.722656 1.492188 -2.71875 1.484375 -2.6875 C 1.484375 -2.65625 1.484375 -2.582031 1.484375 -2.46875 C 1.492188 -2.40625 1.492188 -2.332031 1.484375 -2.25 C 1.484375 -2.175781 1.484375 -2.09375 1.484375 -2 C 1.484375 -1.90625 1.484375 -1.789062 1.484375 -1.65625 C 1.484375 -1.519531 1.484375 -1.363281 1.484375 -1.1875 L 1.484375 0.40625 L 0.40625 0.40625 L 0.40625 -1.59375 C 0.40625 -2.082031 0.40625 -2.472656 0.40625 -2.765625 C 0.40625 -3.054688 0.398438 -3.242188 0.390625 -3.328125 C 0.390625 -3.503906 0.382812 -3.597656 0.375 -3.609375 C 0.363281 -3.628906 0.347656 -3.644531 0.328125 -3.65625 Z M 0.328125 -3.65625 "/></g></g></g><g fill="#ffffff" fill-opacity="1"><g transform="translate(166.653881, 33.188724)"><g><path d="M 1.09375 -3.65625 C 1.082031 -3.664062 1.085938 -3.671875 1.109375 -3.671875 C 1.128906 -3.671875 1.203125 -3.671875 1.328125 -3.671875 C 1.460938 -3.671875 1.640625 -3.671875 1.859375 -3.671875 L 2.671875 -3.671875 L 2.703125 -3.5625 C 2.722656 -3.488281 2.757812 -3.375 2.8125 -3.21875 C 2.832031 -3.125 2.851562 -3.046875 2.875 -2.984375 C 2.894531 -2.921875 2.910156 -2.867188 2.921875 -2.828125 C 2.921875 -2.804688 2.945312 -2.710938 3 -2.546875 C 3.050781 -2.390625 3.085938 -2.257812 3.109375 -2.15625 C 3.148438 -2.019531 3.1875 -1.890625 3.21875 -1.765625 C 3.257812 -1.640625 3.296875 -1.519531 3.328125 -1.40625 C 3.335938 -1.375 3.347656 -1.335938 3.359375 -1.296875 C 3.367188 -1.265625 3.382812 -1.222656 3.40625 -1.171875 C 3.414062 -1.117188 3.425781 -1.078125 3.4375 -1.046875 C 3.445312 -1.015625 3.453125 -0.992188 3.453125 -0.984375 C 3.453125 -0.984375 3.453125 -0.96875 3.453125 -0.9375 C 3.460938 -0.914062 3.476562 -0.882812 3.5 -0.84375 C 3.53125 -0.757812 3.546875 -0.703125 3.546875 -0.671875 C 3.546875 -0.660156 3.550781 -0.640625 3.5625 -0.609375 C 3.570312 -0.578125 3.578125 -0.546875 3.578125 -0.515625 C 3.585938 -0.484375 3.597656 -0.453125 3.609375 -0.421875 C 3.617188 -0.398438 3.625 -0.390625 3.625 -0.390625 C 3.625 -0.378906 3.640625 -0.335938 3.671875 -0.265625 C 3.671875 -0.242188 3.675781 -0.210938 3.6875 -0.171875 C 3.695312 -0.128906 3.707031 -0.0820312 3.71875 -0.03125 C 3.738281 0.0078125 3.753906 0.046875 3.765625 0.078125 C 3.773438 0.117188 3.785156 0.144531 3.796875 0.15625 C 3.796875 0.164062 3.800781 0.1875 3.8125 0.21875 C 3.820312 0.257812 3.828125 0.285156 3.828125 0.296875 C 3.835938 0.316406 3.84375 0.332031 3.84375 0.34375 C 3.84375 0.363281 3.847656 0.378906 3.859375 0.390625 C 3.859375 0.398438 3.851562 0.40625 3.84375 0.40625 C 3.820312 0.40625 3.769531 0.40625 3.6875 0.40625 C 3.601562 0.40625 3.488281 0.40625 3.34375 0.40625 L 2.796875 0.40625 L 2.765625 0.34375 C 2.753906 0.332031 2.742188 0.3125 2.734375 0.28125 C 2.734375 0.25 2.726562 0.21875 2.71875 0.1875 C 2.71875 0.175781 2.710938 0.15625 2.703125 0.125 C 2.703125 0.101562 2.695312 0.0703125 2.6875 0.03125 C 2.675781 0 2.664062 -0.03125 2.65625 -0.0625 C 2.644531 -0.101562 2.632812 -0.140625 2.625 -0.171875 L 2.5625 -0.421875 L 1.328125 -0.421875 L 1.328125 -0.390625 C 1.285156 -0.273438 1.25 -0.164062 1.21875 -0.0625 C 1.195312 0.0390625 1.175781 0.140625 1.15625 0.234375 L 1.109375 0.40625 L 0.546875 0.40625 C 0.410156 0.40625 0.296875 0.40625 0.203125 0.40625 C 0.117188 0.40625 0.078125 0.398438 0.078125 0.390625 C 0.179688 0.0664062 0.28125 -0.257812 0.375 -0.59375 C 0.46875 -0.925781 0.5625 -1.257812 0.65625 -1.59375 C 0.65625 -1.601562 0.660156 -1.628906 0.671875 -1.671875 C 0.691406 -1.722656 0.707031 -1.765625 0.71875 -1.796875 C 0.726562 -1.847656 0.738281 -1.898438 0.75 -1.953125 C 0.769531 -2.015625 0.789062 -2.070312 0.8125 -2.125 C 0.820312 -2.175781 0.832031 -2.234375 0.84375 -2.296875 C 0.863281 -2.359375 0.882812 -2.425781 0.90625 -2.5 C 0.90625 -2.507812 0.910156 -2.53125 0.921875 -2.5625 C 0.929688 -2.59375 0.941406 -2.625 0.953125 -2.65625 C 0.960938 -2.695312 0.96875 -2.734375 0.96875 -2.765625 C 0.976562 -2.796875 0.984375 -2.8125 0.984375 -2.8125 C 0.992188 -2.832031 1 -2.851562 1 -2.875 C 1.007812 -2.90625 1.019531 -2.9375 1.03125 -2.96875 C 1.050781 -3.039062 1.066406 -3.082031 1.078125 -3.09375 C 1.078125 -3.113281 1.082031 -3.144531 1.09375 -3.1875 C 1.101562 -3.226562 1.117188 -3.285156 1.140625 -3.359375 C 1.171875 -3.441406 1.1875 -3.492188 1.1875 -3.515625 C 1.1875 -3.578125 1.15625 -3.625 1.09375 -3.65625 Z M 2.015625 -2.484375 C 1.972656 -2.660156 1.945312 -2.75 1.9375 -2.75 C 1.9375 -2.726562 1.921875 -2.660156 1.890625 -2.546875 C 1.878906 -2.515625 1.867188 -2.472656 1.859375 -2.421875 C 1.847656 -2.378906 1.835938 -2.320312 1.828125 -2.25 C 1.816406 -2.226562 1.800781 -2.175781 1.78125 -2.09375 C 1.757812 -2.007812 1.738281 -1.925781 1.71875 -1.84375 C 1.695312 -1.738281 1.671875 -1.628906 1.640625 -1.515625 C 1.597656 -1.367188 1.578125 -1.289062 1.578125 -1.28125 C 1.578125 -1.269531 1.703125 -1.265625 1.953125 -1.265625 L 2.328125 -1.265625 L 2.328125 -1.328125 C 2.296875 -1.441406 2.253906 -1.59375 2.203125 -1.78125 C 2.148438 -1.976562 2.085938 -2.210938 2.015625 -2.484375 Z M 2.015625 -2.484375 "/></g></g></g><g fill="#ffffff" fill-opacity="1"><g transform="translate(171.4564, 33.188724)"><g><path d="M 0.3125 -3.671875 L 1.5 -3.671875 L 1.5 0.40625 L 0.40625 0.40625 L 0.40625 -1.890625 C 0.40625 -2.316406 0.40625 -2.65625 0.40625 -2.90625 C 0.40625 -3.15625 0.398438 -3.316406 0.390625 -3.390625 C 0.390625 -3.523438 0.378906 -3.601562 0.359375 -3.625 L 0.359375 -3.640625 C 0.347656 -3.648438 0.335938 -3.65625 0.328125 -3.65625 C 0.328125 -3.664062 0.320312 -3.671875 0.3125 -3.671875 Z M 1.640625 -3.671875 L 1.828125 -3.671875 L 1.921875 -3.46875 C 1.941406 -3.4375 1.96875 -3.375 2 -3.28125 C 2.03125 -3.1875 2.050781 -3.128906 2.0625 -3.109375 C 2.125 -2.960938 2.191406 -2.789062 2.265625 -2.59375 C 2.347656 -2.40625 2.4375 -2.1875 2.53125 -1.9375 C 2.726562 -1.445312 2.847656 -1.128906 2.890625 -0.984375 L 2.921875 -0.921875 L 2.921875 -2.5625 C 2.910156 -3.25 2.898438 -3.597656 2.890625 -3.609375 C 2.878906 -3.628906 2.859375 -3.648438 2.828125 -3.671875 L 3.984375 -3.671875 L 3.984375 0.40625 L 2.59375 0.40625 L 2.4375 -0.015625 C 2.300781 -0.335938 2.171875 -0.640625 2.046875 -0.921875 C 1.929688 -1.210938 1.816406 -1.488281 1.703125 -1.75 L 1.640625 -1.890625 Z M 1.640625 -3.671875 "/></g></g></g><g fill="#ffffff" fill-opacity="1"><g transform="translate(176.715787, 33.188724)"><g><path d="M 1.09375 -3.65625 C 1.082031 -3.664062 1.085938 -3.671875 1.109375 -3.671875 C 1.128906 -3.671875 1.203125 -3.671875 1.328125 -3.671875 C 1.460938 -3.671875 1.640625 -3.671875 1.859375 -3.671875 L 2.671875 -3.671875 L 2.703125 -3.5625 C 2.722656 -3.488281 2.757812 -3.375 2.8125 -3.21875 C 2.832031 -3.125 2.851562 -3.046875 2.875 -2.984375 C 2.894531 -2.921875 2.910156 -2.867188 2.921875 -2.828125 C 2.921875 -2.804688 2.945312 -2.710938 3 -2.546875 C 3.050781 -2.390625 3.085938 -2.257812 3.109375 -2.15625 C 3.148438 -2.019531 3.1875 -1.890625 3.21875 -1.765625 C 3.257812 -1.640625 3.296875 -1.519531 3.328125 -1.40625 C 3.335938 -1.375 3.347656 -1.335938 3.359375 -1.296875 C 3.367188 -1.265625 3.382812 -1.222656 3.40625 -1.171875 C 3.414062 -1.117188 3.425781 -1.078125 3.4375 -1.046875 C 3.445312 -1.015625 3.453125 -0.992188 3.453125 -0.984375 C 3.453125 -0.984375 3.453125 -0.96875 3.453125 -0.9375 C 3.460938 -0.914062 3.476562 -0.882812 3.5 -0.84375 C 3.53125 -0.757812 3.546875 -0.703125 3.546875 -0.671875 C 3.546875 -0.660156 3.550781 -0.640625 3.5625 -0.609375 C 3.570312 -0.578125 3.578125 -0.546875 3.578125 -0.515625 C 3.585938 -0.484375 3.597656 -0.453125 3.609375 -0.421875 C 3.617188 -0.398438 3.625 -0.390625 3.625 -0.390625 C 3.625 -0.378906 3.640625 -0.335938 3.671875 -0.265625 C 3.671875 -0.242188 3.675781 -0.210938 3.6875 -0.171875 C 3.695312 -0.128906 3.707031 -0.0820312 3.71875 -0.03125 C 3.738281 0.0078125 3.753906 0.046875 3.765625 0.078125 C 3.773438 0.117188 3.785156 0.144531 3.796875 0.15625 C 3.796875 0.164062 3.800781 0.1875 3.8125 0.21875 C 3.820312 0.257812 3.828125 0.285156 3.828125 0.296875 C 3.835938 0.316406 3.84375 0.332031 3.84375 0.34375 C 3.84375 0.363281 3.847656 0.378906 3.859375 0.390625 C 3.859375 0.398438 3.851562 0.40625 3.84375 0.40625 C 3.820312 0.40625 3.769531 0.40625 3.6875 0.40625 C 3.601562 0.40625 3.488281 0.40625 3.34375 0.40625 L 2.796875 0.40625 L 2.765625 0.34375 C 2.753906 0.332031 2.742188 0.3125 2.734375 0.28125 C 2.734375 0.25 2.726562 0.21875 2.71875 0.1875 C 2.71875 0.175781 2.710938 0.15625 2.703125 0.125 C 2.703125 0.101562 2.695312 0.0703125 2.6875 0.03125 C 2.675781 0 2.664062 -0.03125 2.65625 -0.0625 C 2.644531 -0.101562 2.632812 -0.140625 2.625 -0.171875 L 2.5625 -0.421875 L 1.328125 -0.421875 L 1.328125 -0.390625 C 1.285156 -0.273438 1.25 -0.164062 1.21875 -0.0625 C 1.195312 0.0390625 1.175781 0.140625 1.15625 0.234375 L 1.109375 0.40625 L 0.546875 0.40625 C 0.410156 0.40625 0.296875 0.40625 0.203125 0.40625 C 0.117188 0.40625 0.078125 0.398438 0.078125 0.390625 C 0.179688 0.0664062 0.28125 -0.257812 0.375 -0.59375 C 0.46875 -0.925781 0.5625 -1.257812 0.65625 -1.59375 C 0.65625 -1.601562 0.660156 -1.628906 0.671875 -1.671875 C 0.691406 -1.722656 0.707031 -1.765625 0.71875 -1.796875 C 0.726562 -1.847656 0.738281 -1.898438 0.75 -1.953125 C 0.769531 -2.015625 0.789062 -2.070312 0.8125 -2.125 C 0.820312 -2.175781 0.832031 -2.234375 0.84375 -2.296875 C 0.863281 -2.359375 0.882812 -2.425781 0.90625 -2.5 C 0.90625 -2.507812 0.910156 -2.53125 0.921875 -2.5625 C 0.929688 -2.59375 0.941406 -2.625 0.953125 -2.65625 C 0.960938 -2.695312 0.96875 -2.734375 0.96875 -2.765625 C 0.976562 -2.796875 0.984375 -2.8125 0.984375 -2.8125 C 0.992188 -2.832031 1 -2.851562 1 -2.875 C 1.007812 -2.90625 1.019531 -2.9375 1.03125 -2.96875 C 1.050781 -3.039062 1.066406 -3.082031 1.078125 -3.09375 C 1.078125 -3.113281 1.082031 -3.144531 1.09375 -3.1875 C 1.101562 -3.226562 1.117188 -3.285156 1.140625 -3.359375 C 1.171875 -3.441406 1.1875 -3.492188 1.1875 -3.515625 C 1.1875 -3.578125 1.15625 -3.625 1.09375 -3.65625 Z M 2.015625 -2.484375 C 1.972656 -2.660156 1.945312 -2.75 1.9375 -2.75 C 1.9375 -2.726562 1.921875 -2.660156 1.890625 -2.546875 C 1.878906 -2.515625 1.867188 -2.472656 1.859375 -2.421875 C 1.847656 -2.378906 1.835938 -2.320312 1.828125 -2.25 C 1.816406 -2.226562 1.800781 -2.175781 1.78125 -2.09375 C 1.757812 -2.007812 1.738281 -1.925781 1.71875 -1.84375 C 1.695312 -1.738281 1.671875 -1.628906 1.640625 -1.515625 C 1.597656 -1.367188 1.578125 -1.289062 1.578125 -1.28125 C 1.578125 -1.269531 1.703125 -1.265625 1.953125 -1.265625 L 2.328125 -1.265625 L 2.328125 -1.328125 C 2.296875 -1.441406 2.253906 -1.59375 2.203125 -1.78125 C 2.148438 -1.976562 2.085938 -2.210938 2.015625 -2.484375 Z M 2.015625 -2.484375 "/></g></g></g><g fill="#ffffff" fill-opacity="1"><g transform="translate(181.518307, 33.188724)"><g><path d="M 2.328125 -3.71875 C 2.484375 -3.71875 2.59375 -3.710938 2.65625 -3.703125 C 2.894531 -3.671875 3.113281 -3.59375 3.3125 -3.46875 C 3.507812 -3.351562 3.664062 -3.1875 3.78125 -2.96875 C 3.800781 -2.9375 3.816406 -2.898438 3.828125 -2.859375 C 3.847656 -2.816406 3.863281 -2.769531 3.875 -2.71875 C 3.894531 -2.675781 3.90625 -2.632812 3.90625 -2.59375 C 3.914062 -2.550781 3.921875 -2.515625 3.921875 -2.484375 L 3.921875 -2.453125 L 3.375 -2.453125 C 3.25 -2.453125 3.144531 -2.453125 3.0625 -2.453125 C 2.976562 -2.453125 2.921875 -2.457031 2.890625 -2.46875 C 2.835938 -2.46875 2.8125 -2.472656 2.8125 -2.484375 C 2.8125 -2.492188 2.804688 -2.503906 2.796875 -2.515625 C 2.785156 -2.535156 2.773438 -2.554688 2.765625 -2.578125 C 2.753906 -2.597656 2.738281 -2.617188 2.71875 -2.640625 C 2.707031 -2.671875 2.695312 -2.691406 2.6875 -2.703125 C 2.625 -2.773438 2.550781 -2.820312 2.46875 -2.84375 C 2.382812 -2.875 2.300781 -2.890625 2.21875 -2.890625 C 2.0625 -2.890625 1.929688 -2.84375 1.828125 -2.75 C 1.734375 -2.664062 1.65625 -2.5625 1.59375 -2.4375 C 1.539062 -2.3125 1.503906 -2.175781 1.484375 -2.03125 C 1.472656 -1.882812 1.46875 -1.75 1.46875 -1.625 C 1.46875 -1.550781 1.46875 -1.488281 1.46875 -1.4375 C 1.46875 -1.394531 1.46875 -1.351562 1.46875 -1.3125 C 1.5 -1.0625 1.554688 -0.851562 1.640625 -0.6875 C 1.722656 -0.519531 1.835938 -0.414062 1.984375 -0.375 C 2.023438 -0.351562 2.085938 -0.34375 2.171875 -0.34375 C 2.285156 -0.34375 2.378906 -0.359375 2.453125 -0.390625 C 2.523438 -0.429688 2.585938 -0.484375 2.640625 -0.546875 C 2.691406 -0.609375 2.722656 -0.679688 2.734375 -0.765625 C 2.753906 -0.859375 2.765625 -0.957031 2.765625 -1.0625 L 2.765625 -1.109375 L 2.125 -1.109375 L 2.125 -1.90625 L 3.9375 -1.90625 L 3.9375 0.375 L 3.0625 0.375 L 3.0625 0.015625 L 3.015625 0.078125 C 2.835938 0.335938 2.539062 0.46875 2.125 0.46875 C 1.976562 0.46875 1.832031 0.453125 1.6875 0.421875 C 1.539062 0.398438 1.398438 0.359375 1.265625 0.296875 C 1.140625 0.234375 1.019531 0.15625 0.90625 0.0625 C 0.789062 -0.0195312 0.691406 -0.125 0.609375 -0.25 C 0.347656 -0.601562 0.226562 -1.082031 0.25 -1.6875 C 0.257812 -2.050781 0.332031 -2.378906 0.46875 -2.671875 C 0.613281 -2.972656 0.84375 -3.222656 1.15625 -3.421875 C 1.257812 -3.484375 1.359375 -3.535156 1.453125 -3.578125 C 1.546875 -3.617188 1.632812 -3.648438 1.71875 -3.671875 C 1.8125 -3.691406 1.90625 -3.703125 2 -3.703125 C 2.101562 -3.710938 2.210938 -3.71875 2.328125 -3.71875 Z M 2.328125 -3.71875 "/></g></g></g><g fill="#ffffff" fill-opacity="1"><g transform="translate(186.685236, 33.188724)"><g><path d="M 0.3125 -3.671875 C 0.40625 -3.671875 0.570312 -3.671875 0.8125 -3.671875 C 1.019531 -3.671875 1.3125 -3.671875 1.6875 -3.671875 C 2.070312 -3.671875 2.582031 -3.671875 3.21875 -3.671875 L 3.21875 -2.828125 L 1.5 -2.828125 L 1.5 -0.421875 L 3.375 -0.421875 L 3.375 -0.40625 C 3.375 -0.40625 3.367188 -0.394531 3.359375 -0.375 C 3.359375 -0.351562 3.351562 -0.320312 3.34375 -0.28125 C 3.332031 -0.238281 3.320312 -0.191406 3.3125 -0.140625 C 3.300781 -0.0976562 3.289062 -0.0507812 3.28125 0 C 3.226562 0.257812 3.203125 0.390625 3.203125 0.390625 C 3.191406 0.398438 2.726562 0.40625 1.8125 0.40625 L 0.421875 0.40625 L 0.421875 -1.5625 C 0.421875 -2.226562 0.421875 -2.71875 0.421875 -3.03125 C 0.421875 -3.351562 0.414062 -3.53125 0.40625 -3.5625 C 0.394531 -3.613281 0.363281 -3.648438 0.3125 -3.671875 Z M 1.671875 -2.078125 L 3.125 -2.078125 L 3.125 -1.25 L 1.671875 -1.25 Z M 1.671875 -2.078125 "/></g></g></g><g fill="#ffffff" fill-opacity="1"><g transform="translate(191.101595, 33.188724)"><g><path d="M 0.328125 -3.65625 C 0.316406 -3.664062 0.316406 -3.671875 0.328125 -3.671875 C 0.347656 -3.671875 0.425781 -3.671875 0.5625 -3.671875 C 0.707031 -3.671875 0.910156 -3.671875 1.171875 -3.671875 C 1.765625 -3.671875 2.066406 -3.671875 2.078125 -3.671875 C 2.078125 -3.628906 2.113281 -3.445312 2.1875 -3.125 C 2.1875 -3.125 2.1875 -3.109375 2.1875 -3.078125 C 2.195312 -3.054688 2.203125 -3.023438 2.203125 -2.984375 C 2.210938 -2.953125 2.21875 -2.921875 2.21875 -2.890625 C 2.226562 -2.859375 2.238281 -2.835938 2.25 -2.828125 C 2.300781 -2.566406 2.351562 -2.304688 2.40625 -2.046875 C 2.457031 -1.796875 2.507812 -1.539062 2.5625 -1.28125 C 2.582031 -1.175781 2.59375 -1.125 2.59375 -1.125 L 2.671875 -1.375 C 2.679688 -1.425781 2.695312 -1.5 2.71875 -1.59375 C 2.738281 -1.6875 2.765625 -1.804688 2.796875 -1.953125 C 2.828125 -2.046875 2.851562 -2.140625 2.875 -2.234375 C 2.894531 -2.328125 2.914062 -2.425781 2.9375 -2.53125 C 2.957031 -2.59375 2.972656 -2.65625 2.984375 -2.71875 C 2.992188 -2.78125 3.003906 -2.84375 3.015625 -2.90625 C 3.035156 -2.96875 3.050781 -3.03125 3.0625 -3.09375 C 3.15625 -3.445312 3.203125 -3.628906 3.203125 -3.640625 L 3.203125 -3.671875 L 4.796875 -3.671875 L 4.796875 0.40625 L 3.734375 0.40625 L 3.734375 -2.875 L 3.6875 -2.65625 C 3.570312 -2.226562 3.460938 -1.78125 3.359375 -1.3125 C 3.253906 -0.84375 3.15625 -0.351562 3.0625 0.15625 L 3.015625 0.40625 L 2.078125 0.40625 L 2.046875 0.234375 C 1.992188 -0.046875 1.945312 -0.296875 1.90625 -0.515625 C 1.863281 -0.742188 1.828125 -0.941406 1.796875 -1.109375 C 1.734375 -1.441406 1.679688 -1.710938 1.640625 -1.921875 C 1.609375 -2.128906 1.582031 -2.28125 1.5625 -2.375 C 1.539062 -2.46875 1.523438 -2.539062 1.515625 -2.59375 C 1.503906 -2.65625 1.5 -2.691406 1.5 -2.703125 C 1.5 -2.722656 1.492188 -2.71875 1.484375 -2.6875 C 1.484375 -2.65625 1.484375 -2.582031 1.484375 -2.46875 C 1.492188 -2.40625 1.492188 -2.332031 1.484375 -2.25 C 1.484375 -2.175781 1.484375 -2.09375 1.484375 -2 C 1.484375 -1.90625 1.484375 -1.789062 1.484375 -1.65625 C 1.484375 -1.519531 1.484375 -1.363281 1.484375 -1.1875 L 1.484375 0.40625 L 0.40625 0.40625 L 0.40625 -1.59375 C 0.40625 -2.082031 0.40625 -2.472656 0.40625 -2.765625 C 0.40625 -3.054688 0.398438 -3.242188 0.390625 -3.328125 C 0.390625 -3.503906 0.382812 -3.597656 0.375 -3.609375 C 0.363281 -3.628906 0.347656 -3.644531 0.328125 -3.65625 Z M 0.328125 -3.65625 "/></g></g></g><g fill="#ffffff" fill-opacity="1"><g transform="translate(197.171373, 33.188724)"><g><path d="M 0.3125 -3.671875 C 0.40625 -3.671875 0.570312 -3.671875 0.8125 -3.671875 C 1.019531 -3.671875 1.3125 -3.671875 1.6875 -3.671875 C 2.070312 -3.671875 2.582031 -3.671875 3.21875 -3.671875 L 3.21875 -2.828125 L 1.5 -2.828125 L 1.5 -0.421875 L 3.375 -0.421875 L 3.375 -0.40625 C 3.375 -0.40625 3.367188 -0.394531 3.359375 -0.375 C 3.359375 -0.351562 3.351562 -0.320312 3.34375 -0.28125 C 3.332031 -0.238281 3.320312 -0.191406 3.3125 -0.140625 C 3.300781 -0.0976562 3.289062 -0.0507812 3.28125 0 C 3.226562 0.257812 3.203125 0.390625 3.203125 0.390625 C 3.191406 0.398438 2.726562 0.40625 1.8125 0.40625 L 0.421875 0.40625 L 0.421875 -1.5625 C 0.421875 -2.226562 0.421875 -2.71875 0.421875 -3.03125 C 0.421875 -3.351562 0.414062 -3.53125 0.40625 -3.5625 C 0.394531 -3.613281 0.363281 -3.648438 0.3125 -3.671875 Z M 1.671875 -2.078125 L 3.125 -2.078125 L 3.125 -1.25 L 1.671875 -1.25 Z M 1.671875 -2.078125 "/></g></g></g><g fill="#ffffff" fill-opacity="1"><g transform="translate(201.587733, 33.188724)"><g><path d="M 0.3125 -3.671875 L 1.5 -3.671875 L 1.5 0.40625 L 0.40625 0.40625 L 0.40625 -1.890625 C 0.40625 -2.316406 0.40625 -2.65625 0.40625 -2.90625 C 0.40625 -3.15625 0.398438 -3.316406 0.390625 -3.390625 C 0.390625 -3.523438 0.378906 -3.601562 0.359375 -3.625 L 0.359375 -3.640625 C 0.347656 -3.648438 0.335938 -3.65625 0.328125 -3.65625 C 0.328125 -3.664062 0.320312 -3.671875 0.3125 -3.671875 Z M 1.640625 -3.671875 L 1.828125 -3.671875 L 1.921875 -3.46875 C 1.941406 -3.4375 1.96875 -3.375 2 -3.28125 C 2.03125 -3.1875 2.050781 -3.128906 2.0625 -3.109375 C 2.125 -2.960938 2.191406 -2.789062 2.265625 -2.59375 C 2.347656 -2.40625 2.4375 -2.1875 2.53125 -1.9375 C 2.726562 -1.445312 2.847656 -1.128906 2.890625 -0.984375 L 2.921875 -0.921875 L 2.921875 -2.5625 C 2.910156 -3.25 2.898438 -3.597656 2.890625 -3.609375 C 2.878906 -3.628906 2.859375 -3.648438 2.828125 -3.671875 L 3.984375 -3.671875 L 3.984375 0.40625 L 2.59375 0.40625 L 2.4375 -0.015625 C 2.300781 -0.335938 2.171875 -0.640625 2.046875 -0.921875 C 1.929688 -1.210938 1.816406 -1.488281 1.703125 -1.75 L 1.640625 -1.890625 Z M 1.640625 -3.671875 "/></g></g></g><g fill="#ffffff" fill-opacity="1"><g transform="translate(206.84712, 33.188724)"><g><path d="M 0.109375 -3.671875 L 3.3125 -3.671875 L 3.3125 -2.84375 L 0.109375 -2.84375 Z M 1.125 -2.65625 L 1.09375 -2.6875 L 2.265625 -2.6875 L 2.265625 0.40625 L 1.171875 0.40625 L 1.171875 -1.0625 C 1.171875 -1.570312 1.171875 -1.953125 1.171875 -2.203125 C 1.171875 -2.460938 1.164062 -2.597656 1.15625 -2.609375 C 1.15625 -2.617188 1.144531 -2.632812 1.125 -2.65625 Z M 1.125 -2.65625 "/></g></g></g><g clip-path="url(#62d62e896e)"><path fill="#ffffff" d="M 21.011719 17.996094 C 21.011719 9.664062 27.765625 2.910156 36.097656 2.910156 C 42.832031 2.910156 48.765625 7.378906 50.609375 13.859375 C 50.804688 14.554688 50.402344 15.277344 49.707031 15.476562 C 49.015625 15.671875 48.289062 15.269531 48.089844 14.574219 C 46.566406 9.222656 41.664062 5.527344 36.097656 5.527344 C 29.210938 5.527344 23.628906 11.109375 23.628906 17.996094 C 23.628906 19.292969 23.882812 20.730469 24.273438 21.960938 C 24.402344 22.371094 24.335938 22.78125 24.078125 23.128906 C 23.824219 23.476562 23.453125 23.664062 23.023438 23.664062 L 19.011719 23.664062 C 16.484375 23.664062 14.289062 25.167969 13.269531 27.320312 C 14.117188 27.914062 14.675781 28.894531 14.675781 30.007812 C 14.675781 31.121094 14.117188 32.105469 13.269531 32.699219 C 14.289062 34.851562 16.484375 36.355469 19.011719 36.355469 L 79.3125 36.355469 C 80.035156 36.355469 80.621094 36.941406 80.621094 37.664062 C 80.621094 38.382812 80.035156 38.972656 79.3125 38.972656 L 19.011719 38.972656 C 15.203125 38.972656 11.929688 36.566406 10.640625 33.199219 C 9.195312 32.855469 8.121094 31.558594 8.121094 30.007812 C 8.121094 28.460938 9.195312 27.160156 10.640625 26.820312 C 11.929688 23.453125 15.203125 21.046875 19.011719 21.046875 L 21.335938 21.046875 C 21.128906 20.035156 21.011719 18.988281 21.011719 17.996094 Z M 11.398438 28.042969 C 12.484375 28.042969 13.363281 28.925781 13.363281 30.007812 C 13.363281 31.09375 12.484375 31.976562 11.398438 31.976562 C 10.3125 31.976562 9.429688 31.09375 9.429688 30.007812 C 9.429688 28.925781 10.3125 28.042969 11.398438 28.042969 " fill-opacity="1" fill-rule="nonzero"/></g><path fill="#ffffff" d="M 11.398438 28.601562 C 12.175781 28.601562 12.808594 29.230469 12.808594 30.007812 C 12.808594 30.789062 12.175781 31.417969 11.398438 31.417969 C 10.617188 31.417969 9.988281 30.789062 9.988281 30.007812 C 9.988281 29.230469 10.617188 28.601562 11.398438 28.601562 " fill-opacity="1" fill-rule="nonzero"/><g clip-path="url(#e95a9e014d)"><path fill="#ffffff" d="M 21.398438 11.605469 C 23.808594 5.84375 29.5 1.792969 36.136719 1.792969 C 40.175781 1.792969 43.867188 3.292969 46.679688 5.765625 C 48.609375 7.464844 50.128906 9.617188 51.0625 12.0625 C 51.433594 11.863281 51.765625 11.609375 52.054688 11.308594 C 52.710938 10.617188 53.117188 9.679688 53.117188 8.648438 C 53.117188 6.515625 51.386719 4.785156 49.253906 4.785156 C 48.710938 4.785156 48.195312 4.894531 47.726562 5.097656 C 44.671875 2.300781 40.605469 0.597656 36.136719 0.597656 C 28.878906 0.597656 22.671875 5.101562 20.160156 11.464844 C 18.113281 11.566406 16.488281 13.253906 16.488281 15.324219 C 16.488281 16.984375 17.535156 18.402344 19.007812 18.949219 C 19.386719 19.089844 19.796875 19.171875 20.226562 19.183594 C 20.183594 18.71875 20.164062 18.246094 20.164062 17.769531 C 20.164062 15.585938 20.601562 13.5 21.398438 11.605469 Z M 20.160156 11.464844 C 20.222656 11.464844 20.285156 11.460938 20.351562 11.460938 Z M 20.160156 11.464844 " fill-opacity="1" fill-rule="nonzero"/></g></svg>